<?xml version="1.0" encoding="UTF-8" standalone="no"?>
<!DOCTYPE svg PUBLIC "-//W3C//DTD SVG 1.1//EN"
 "http://www.w3.org/Graphics/SVG/1.1/DTD/svg11.dtd">
<!-- Generated by graphviz version 2.40.1 (20161225.0304)
 -->
<!-- Title: packages Pages: 1 -->
<svg width="4352pt" height="548pt"
 viewBox="0.00 0.00 4351.50 548.00" xmlns="http://www.w3.org/2000/svg" xmlns:xlink="http://www.w3.org/1999/xlink">
<g id="graph0" class="graph" transform="scale(1 1) rotate(0) translate(4 544)">
<title>packages</title>
<polygon fill="#ffffff" stroke="transparent" points="-4,4 -4,-544 4347.5,-544 4347.5,4 -4,4"/>
<!-- folium -->
<g id="node1" class="node">
<title>folium</title>
<polygon fill="none" stroke="#000000" points="3658.5,-180 3604.5,-180 3604.5,-144 3658.5,-144 3658.5,-180"/>
<text text-anchor="middle" x="3631.5" y="-158.3" font-family="Times,serif" font-size="14.00" fill="#000000">folium</text>
</g>
<!-- folium._version -->
<g id="node2" class="node">
<title>folium._version</title>
<polygon fill="none" stroke="#000000" points="3763.5,-252 3659.5,-252 3659.5,-216 3763.5,-216 3763.5,-252"/>
<text text-anchor="middle" x="3711.5" y="-230.3" font-family="Times,serif" font-size="14.00" fill="#000000">folium._version</text>
</g>
<!-- folium&#45;&gt;folium._version -->
<g id="edge1" class="edge">
<title>folium&#45;&gt;folium._version</title>
<path fill="none" stroke="#000000" d="M3651.6874,-180.1686C3661.3514,-188.8663 3673.0796,-199.4217 3683.5816,-208.8735"/>
<polygon fill="#000000" stroke="#000000" points="3691.3191,-215.8372 3680.8758,-212.4923 3687.6026,-212.4923 3683.8861,-209.1475 3683.8861,-209.1475 3683.8861,-209.1475 3687.6026,-212.4923 3686.8965,-205.8027 3691.3191,-215.8372 3691.3191,-215.8372"/>
</g>
<!-- folium.features -->
<g id="node4" class="node">
<title>folium.features</title>
<polygon fill="none" stroke="#000000" points="3565.5,-252 3465.5,-252 3465.5,-216 3565.5,-216 3565.5,-252"/>
<text text-anchor="middle" x="3515.5" y="-230.3" font-family="Times,serif" font-size="14.00" fill="#000000">folium.features</text>
</g>
<!-- folium&#45;&gt;folium.features -->
<g id="edge2" class="edge">
<title>folium&#45;&gt;folium.features</title>
<path fill="none" stroke="#000000" d="M3604.3032,-178.8808C3589.1607,-188.2796 3570.0721,-200.1277 3553.4765,-210.4284"/>
<polygon fill="#000000" stroke="#000000" points="3544.5542,-215.9664 3550.6775,-206.8693 3548.8024,-213.3295 3553.0506,-210.6927 3553.0506,-210.6927 3553.0506,-210.6927 3548.8024,-213.3295 3555.4238,-214.5161 3544.5542,-215.9664 3544.5542,-215.9664"/>
</g>
<!-- folium.folium -->
<g id="node5" class="node">
<title>folium.folium</title>
<polygon fill="none" stroke="#000000" points="3859.5,-324 3765.5,-324 3765.5,-288 3859.5,-288 3859.5,-324"/>
<text text-anchor="middle" x="3812.5" y="-302.3" font-family="Times,serif" font-size="14.00" fill="#000000">folium.folium</text>
</g>
<!-- folium&#45;&gt;folium.folium -->
<g id="edge3" class="edge">
<title>folium&#45;&gt;folium.folium</title>
<path fill="none" stroke="#000000" d="M3658.7044,-166.0105C3689.8137,-171.9048 3740.5543,-185.6882 3772.5,-216 3790.0337,-232.6369 3800.4001,-258.3423 3806.1683,-278.0284"/>
<polygon fill="#000000" stroke="#000000" points="3808.7792,-287.6944 3801.8271,-279.2139 3807.4753,-282.8674 3806.1714,-278.0404 3806.1714,-278.0404 3806.1714,-278.0404 3807.4753,-282.8674 3810.5158,-276.8669 3808.7792,-287.6944 3808.7792,-287.6944"/>
</g>
<!-- folium.map -->
<g id="node6" class="node">
<title>folium.map</title>
<polygon fill="none" stroke="#000000" points="3316,-468 3235,-468 3235,-432 3316,-432 3316,-468"/>
<text text-anchor="middle" x="3275.5" y="-446.3" font-family="Times,serif" font-size="14.00" fill="#000000">folium.map</text>
</g>
<!-- folium&#45;&gt;folium.map -->
<g id="edge4" class="edge">
<title>folium&#45;&gt;folium.map</title>
<path fill="none" stroke="#000000" d="M3628.8593,-180.3048C3626.1839,-198.5135 3621.8325,-227.2336 3617.5,-252 3611.8825,-284.1117 3617.839,-294.7236 3603.5,-324 3584.797,-362.1864 3577.2622,-374.6332 3540.5,-396 3504.7612,-416.772 3392.8177,-434.5162 3326.4062,-443.5707"/>
<polygon fill="#000000" stroke="#000000" points="3316.1571,-444.9485 3325.4684,-439.1562 3321.1125,-444.2823 3326.068,-443.6161 3326.068,-443.6161 3326.068,-443.6161 3321.1125,-444.2823 3326.6675,-448.076 3316.1571,-444.9485 3316.1571,-444.9485"/>
</g>
<!-- folium.raster_layers -->
<g id="node36" class="node">
<title>folium.raster_layers</title>
<polygon fill="none" stroke="#000000" points="3891.5,-396 3765.5,-396 3765.5,-360 3891.5,-360 3891.5,-396"/>
<text text-anchor="middle" x="3828.5" y="-374.3" font-family="Times,serif" font-size="14.00" fill="#000000">folium.raster_layers</text>
</g>
<!-- folium&#45;&gt;folium.raster_layers -->
<g id="edge5" class="edge">
<title>folium&#45;&gt;folium.raster_layers</title>
<path fill="none" stroke="#000000" d="M3658.6784,-163.4033C3748.2666,-168.3032 4030.0728,-186.0025 4056.5,-216 4067.0767,-228.0056 4065.8372,-239.007 4056.5,-252 4027.2192,-292.7451 3993.9577,-264.7396 3949.5,-288 3915.0535,-306.0225 3879.8571,-333.4182 3856.3705,-353.2495"/>
<polygon fill="#000000" stroke="#000000" points="3848.5718,-359.9208 3853.2456,-350.0008 3852.3713,-356.6705 3856.1708,-353.4203 3856.1708,-353.4203 3856.1708,-353.4203 3852.3713,-356.6705 3859.096,-356.8398 3848.5718,-359.9208 3848.5718,-359.9208"/>
</g>
<!-- folium.vector_layers -->
<g id="node38" class="node">
<title>folium.vector_layers</title>
<polygon fill="none" stroke="#000000" points="3019.5,-396 2889.5,-396 2889.5,-360 3019.5,-360 3019.5,-396"/>
<text text-anchor="middle" x="2954.5" y="-374.3" font-family="Times,serif" font-size="14.00" fill="#000000">folium.vector_layers</text>
</g>
<!-- folium&#45;&gt;folium.vector_layers -->
<g id="edge6" class="edge">
<title>folium&#45;&gt;folium.vector_layers</title>
<path fill="none" stroke="#000000" d="M3626.6783,-180.2656C3615.6758,-221.646 3589.2255,-319.3302 3583.5,-324 3541.3996,-358.3378 3187.2078,-371.8782 3029.6075,-376.2389"/>
<polygon fill="#000000" stroke="#000000" points="3019.5163,-376.513 3029.3904,-371.743 3024.5145,-376.3772 3029.5126,-376.2414 3029.5126,-376.2414 3029.5126,-376.2414 3024.5145,-376.3772 3029.6348,-380.7397 3019.5163,-376.513 3019.5163,-376.513"/>
</g>
<!-- folium.elements -->
<g id="node3" class="node">
<title>folium.elements</title>
<polygon fill="none" stroke="#000000" points="2202.5,-396 2096.5,-396 2096.5,-360 2202.5,-360 2202.5,-396"/>
<text text-anchor="middle" x="2149.5" y="-374.3" font-family="Times,serif" font-size="14.00" fill="#000000">folium.elements</text>
</g>
<!-- folium.features&#45;&gt;folium.elements -->
<g id="edge7" class="edge">
<title>folium.features&#45;&gt;folium.elements</title>
<path fill="none" stroke="#000000" d="M3465.2337,-234.3024C3247.7705,-235.8667 2393.9158,-244.7353 2282.5,-288 2259.2657,-297.0223 2259.8041,-309.5439 2239.5,-324 2224.2376,-334.8665 2206.7167,-345.7152 2191.2137,-354.8075"/>
<polygon fill="#000000" stroke="#000000" points="2182.3513,-359.9447 2188.7461,-351.0365 2186.6771,-357.4372 2191.0029,-354.9297 2191.0029,-354.9297 2191.0029,-354.9297 2186.6771,-357.4372 2193.2596,-358.8229 2182.3513,-359.9447 2182.3513,-359.9447"/>
</g>
<!-- folium.features&#45;&gt;folium.folium -->
<g id="edge8" class="edge">
<title>folium.features&#45;&gt;folium.folium</title>
<path fill="none" stroke="#000000" d="M3565.6153,-247.4582C3618.1449,-260.6393 3700.3883,-280.5666 3755.3899,-293.4329"/>
<polygon fill="#000000" stroke="#000000" points="3765.3295,-295.7499 3754.569,-297.8621 3760.4601,-294.6147 3755.5906,-293.4796 3755.5906,-293.4796 3755.5906,-293.4796 3760.4601,-294.6147 3756.6123,-289.0971 3765.3295,-295.7499 3765.3295,-295.7499"/>
</g>
<!-- folium.features&#45;&gt;folium.map -->
<g id="edge9" class="edge">
<title>folium.features&#45;&gt;folium.map</title>
<path fill="none" stroke="#000000" d="M3549.589,-252.0865C3562.7208,-260.9968 3576.2897,-273.0669 3583.5,-288 3590.4569,-302.4084 3592.4182,-310.716 3583.5,-324 3525.7205,-410.0645 3397.6337,-437.3826 3326.1771,-446.0249"/>
<polygon fill="#000000" stroke="#000000" points="3316.0604,-447.1692 3325.4912,-441.5737 3321.0287,-446.6072 3325.997,-446.0452 3325.997,-446.0452 3325.997,-446.0452 3321.0287,-446.6072 3326.5029,-450.5167 3316.0604,-447.1692 3316.0604,-447.1692"/>
</g>
<!-- folium.utilities -->
<g id="node37" class="node">
<title>folium.utilities</title>
<polygon fill="none" stroke="#000000" points="1881.5,-540 1783.5,-540 1783.5,-504 1881.5,-504 1881.5,-540"/>
<text text-anchor="middle" x="1832.5" y="-518.3" font-family="Times,serif" font-size="14.00" fill="#000000">folium.utilities</text>
</g>
<!-- folium.features&#45;&gt;folium.utilities -->
<g id="edge10" class="edge">
<title>folium.features&#45;&gt;folium.utilities</title>
<path fill="none" stroke="#000000" d="M3560.4789,-252.0145C3575.674,-260.5241 3590.9432,-272.3268 3599.5,-288 3607.167,-302.0434 3604.8847,-308.9333 3599.5,-324 3553.069,-453.917 3460.2613,-443.4409 3324.5,-468 3182.0482,-493.7694 2151.9881,-515.6863 1891.9809,-520.8498"/>
<polygon fill="#000000" stroke="#000000" points="1881.617,-521.0549 1891.526,-516.3579 1886.6161,-520.9559 1891.6151,-520.857 1891.6151,-520.857 1891.6151,-520.857 1886.6161,-520.9559 1891.7041,-525.3561 1881.617,-521.0549 1881.617,-521.0549"/>
</g>
<!-- folium.features&#45;&gt;folium.vector_layers -->
<g id="edge11" class="edge">
<title>folium.features&#45;&gt;folium.vector_layers</title>
<path fill="none" stroke="#000000" d="M3538.2324,-252.0997C3559.8657,-271.4508 3586.3903,-302.2774 3566.5,-324 3530.9193,-362.8584 3185.6931,-373.9016 3029.996,-376.918"/>
<polygon fill="#000000" stroke="#000000" points="3019.5699,-377.1134 3029.4837,-372.4267 3024.569,-377.0197 3029.5681,-376.9259 3029.5681,-376.9259 3029.5681,-376.9259 3024.569,-377.0197 3029.6525,-381.4251 3019.5699,-377.1134 3019.5699,-377.1134"/>
</g>
<!-- folium.folium&#45;&gt;folium.elements -->
<g id="edge12" class="edge">
<title>folium.folium&#45;&gt;folium.elements</title>
<path fill="none" stroke="#000000" d="M3765.3717,-309.94C3715.8779,-313.9625 3635.7654,-320.1473 3566.5,-324 3043.9873,-353.0635 2412.2068,-371.0935 2212.8904,-376.3744"/>
<polygon fill="#000000" stroke="#000000" points="2202.61,-376.6456 2212.4878,-371.8833 2207.6082,-376.5137 2212.6065,-376.3818 2212.6065,-376.3818 2212.6065,-376.3818 2207.6082,-376.5137 2212.7252,-380.8802 2202.61,-376.6456 2202.61,-376.6456"/>
</g>
<!-- folium.folium&#45;&gt;folium.features -->
<g id="edge13" class="edge">
<title>folium.folium&#45;&gt;folium.features</title>
<path fill="none" stroke="#000000" d="M3765.2387,-293.2587C3713.7384,-280.3097 3631.3888,-260.3405 3575.404,-247.2213"/>
<polygon fill="#000000" stroke="#000000" points="3565.6173,-244.9353 3576.3787,-242.8279 3570.4862,-246.0726 3575.3551,-247.2099 3575.3551,-247.2099 3575.3551,-247.2099 3570.4862,-246.0726 3574.3315,-251.592 3565.6173,-244.9353 3565.6173,-244.9353"/>
</g>
<!-- folium.folium&#45;&gt;folium.map -->
<g id="edge14" class="edge">
<title>folium.folium&#45;&gt;folium.map</title>
<path fill="none" stroke="#000000" d="M3784.347,-324.1708C3750.7735,-344.9465 3692.2957,-378.354 3637.5,-396 3529.9854,-430.6231 3397.2435,-443.1998 3326.1458,-447.6533"/>
<polygon fill="#000000" stroke="#000000" points="3316.1136,-448.2531 3325.8272,-443.1642 3321.1047,-447.9546 3326.0958,-447.6562 3326.0958,-447.6562 3326.0958,-447.6562 3321.1047,-447.9546 3326.3644,-452.1482 3316.1136,-448.2531 3316.1136,-448.2531"/>
</g>
<!-- folium.folium&#45;&gt;folium.raster_layers -->
<g id="edge15" class="edge">
<title>folium.folium&#45;&gt;folium.raster_layers</title>
<path fill="none" stroke="#000000" d="M3816.5375,-324.1686C3818.2487,-331.869 3820.2835,-341.0257 3822.1852,-349.5834"/>
<polygon fill="#000000" stroke="#000000" points="3824.4082,-359.5867 3817.8459,-350.8011 3823.3235,-354.7058 3822.2388,-349.8249 3822.2388,-349.8249 3822.2388,-349.8249 3823.3235,-354.7058 3826.6316,-348.8486 3824.4082,-359.5867 3824.4082,-359.5867"/>
</g>
<!-- folium.folium&#45;&gt;folium.utilities -->
<g id="edge16" class="edge">
<title>folium.folium&#45;&gt;folium.utilities</title>
<path fill="none" stroke="#000000" d="M3792.296,-324.0093C3781.2903,-334.176 3767.6769,-347.3471 3756.5,-360 3716.7775,-404.968 3728.7669,-440.3841 3675.5,-468 3594.5837,-509.9505 2198.4942,-520 1891.7677,-521.7055"/>
<polygon fill="#000000" stroke="#000000" points="1881.7414,-521.7604 1891.7165,-517.2056 1886.7413,-521.733 1891.7412,-521.7056 1891.7412,-521.7056 1891.7412,-521.7056 1886.7413,-521.733 1891.7659,-526.2055 1881.7414,-521.7604 1881.7414,-521.7604"/>
</g>
<!-- folium.map&#45;&gt;folium.utilities -->
<g id="edge17" class="edge">
<title>folium.map&#45;&gt;folium.utilities</title>
<path fill="none" stroke="#000000" d="M3234.6382,-452.0388C3031.7203,-462.1636 2132.5379,-507.0293 1891.9002,-519.0362"/>
<polygon fill="#000000" stroke="#000000" points="1881.6091,-519.5496 1891.3724,-514.5568 1886.6029,-519.3004 1891.5967,-519.0512 1891.5967,-519.0512 1891.5967,-519.0512 1886.6029,-519.3004 1891.821,-523.5456 1881.6091,-519.5496 1881.6091,-519.5496"/>
</g>
<!-- folium.plugins -->
<g id="node7" class="node">
<title>folium.plugins</title>
<polygon fill="none" stroke="#000000" points="2035,-36 1938,-36 1938,0 2035,0 2035,-36"/>
<text text-anchor="middle" x="1986.5" y="-14.3" font-family="Times,serif" font-size="14.00" fill="#000000">folium.plugins</text>
</g>
<!-- folium.plugins.antpath -->
<g id="node8" class="node">
<title>folium.plugins.antpath</title>
<polygon fill="none" stroke="#000000" points="2431.5,-324 2291.5,-324 2291.5,-288 2431.5,-288 2431.5,-324"/>
<text text-anchor="middle" x="2361.5" y="-302.3" font-family="Times,serif" font-size="14.00" fill="#000000">folium.plugins.antpath</text>
</g>
<!-- folium.plugins&#45;&gt;folium.plugins.antpath -->
<g id="edge18" class="edge">
<title>folium.plugins&#45;&gt;folium.plugins.antpath</title>
<path fill="none" stroke="#000000" d="M1937.6516,-18.9576C1806.1487,-22.0376 1452.2196,-33.8294 1417.5,-72 1406.734,-83.8361 1407.845,-95.2414 1417.5,-108 1521.8395,-245.8794 2072.1519,-290.1554 2281.0103,-302.1208"/>
<polygon fill="#000000" stroke="#000000" points="2291.2923,-302.6995 2281.0552,-306.6304 2286.3002,-302.4185 2281.3081,-302.1375 2281.3081,-302.1375 2281.3081,-302.1375 2286.3002,-302.4185 2281.561,-297.6446 2291.2923,-302.6995 2291.2923,-302.6995"/>
</g>
<!-- folium.plugins.beautify_icon -->
<g id="node9" class="node">
<title>folium.plugins.beautify_icon</title>
<polygon fill="none" stroke="#000000" points="175,-324 0,-324 0,-288 175,-288 175,-324"/>
<text text-anchor="middle" x="87.5" y="-302.3" font-family="Times,serif" font-size="14.00" fill="#000000">folium.plugins.beautify_icon</text>
</g>
<!-- folium.plugins&#45;&gt;folium.plugins.beautify_icon -->
<g id="edge19" class="edge">
<title>folium.plugins&#45;&gt;folium.plugins.beautify_icon</title>
<path fill="none" stroke="#000000" d="M1937.8942,-18.7743C1750.9174,-21.9965 1078.0089,-35.8997 867.5,-72 588.7562,-119.8019 269.3757,-235.7763 143.063,-284.1959"/>
<polygon fill="#000000" stroke="#000000" points="133.5881,-287.8402 141.306,-280.0502 138.2548,-286.0452 142.9215,-284.2502 142.9215,-284.2502 142.9215,-284.2502 138.2548,-286.0452 144.537,-288.4503 133.5881,-287.8402 133.5881,-287.8402"/>
</g>
<!-- folium.plugins.boat_marker -->
<g id="node10" class="node">
<title>folium.plugins.boat_marker</title>
<polygon fill="none" stroke="#000000" points="2657.5,-324 2487.5,-324 2487.5,-288 2657.5,-288 2657.5,-324"/>
<text text-anchor="middle" x="2572.5" y="-302.3" font-family="Times,serif" font-size="14.00" fill="#000000">folium.plugins.boat_marker</text>
</g>
<!-- folium.plugins&#45;&gt;folium.plugins.boat_marker -->
<g id="edge20" class="edge">
<title>folium.plugins&#45;&gt;folium.plugins.boat_marker</title>
<path fill="none" stroke="#000000" d="M2035.0807,-25.0866C2103.4197,-37.4807 2227.9087,-69.2895 2302.5,-144 2339.0032,-180.5616 2306.4111,-218.217 2345.5,-252 2365.5473,-269.3262 2424.3829,-283.0457 2477.1292,-292.3203"/>
<polygon fill="#000000" stroke="#000000" points="2487.2397,-294.0579 2476.622,-296.7991 2482.312,-293.211 2477.3842,-292.3641 2477.3842,-292.3641 2477.3842,-292.3641 2482.312,-293.211 2478.1464,-287.9291 2487.2397,-294.0579 2487.2397,-294.0579"/>
</g>
<!-- folium.plugins.draw -->
<g id="node11" class="node">
<title>folium.plugins.draw</title>
<polygon fill="none" stroke="#000000" points="2293.5,-180 2165.5,-180 2165.5,-144 2293.5,-144 2293.5,-180"/>
<text text-anchor="middle" x="2229.5" y="-158.3" font-family="Times,serif" font-size="14.00" fill="#000000">folium.plugins.draw</text>
</g>
<!-- folium.plugins&#45;&gt;folium.plugins.draw -->
<g id="edge21" class="edge">
<title>folium.plugins&#45;&gt;folium.plugins.draw</title>
<path fill="none" stroke="#000000" d="M2017.2761,-36.2377C2061.2795,-62.3137 2142.1684,-110.248 2190.3701,-138.8119"/>
<polygon fill="#000000" stroke="#000000" points="2198.9738,-143.9104 2188.0767,-142.6836 2194.6723,-141.3613 2190.3708,-138.8123 2190.3708,-138.8123 2190.3708,-138.8123 2194.6723,-141.3613 2192.665,-134.941 2198.9738,-143.9104 2198.9738,-143.9104"/>
</g>
<!-- folium.plugins.dual_map -->
<g id="node12" class="node">
<title>folium.plugins.dual_map</title>
<polygon fill="none" stroke="#000000" points="4259,-252 4104,-252 4104,-216 4259,-216 4259,-252"/>
<text text-anchor="middle" x="4181.5" y="-230.3" font-family="Times,serif" font-size="14.00" fill="#000000">folium.plugins.dual_map</text>
</g>
<!-- folium.plugins&#45;&gt;folium.plugins.dual_map -->
<g id="edge22" class="edge">
<title>folium.plugins&#45;&gt;folium.plugins.dual_map</title>
<path fill="none" stroke="#000000" d="M2035.035,-18.8252C2291.4952,-23.2865 3483.2414,-45.3111 3645.5,-72 3826.1092,-101.7073 4030.9898,-175.3477 4126.7414,-212.2274"/>
<polygon fill="#000000" stroke="#000000" points="4136.2152,-215.8937 4125.265,-216.4812 4131.5522,-214.0891 4126.8892,-212.2845 4126.8892,-212.2845 4126.8892,-212.2845 4131.5522,-214.0891 4128.5134,-208.0878 4136.2152,-215.8937 4136.2152,-215.8937"/>
</g>
<!-- folium.plugins.fast_marker_cluster -->
<g id="node13" class="node">
<title>folium.plugins.fast_marker_cluster</title>
<polygon fill="none" stroke="#000000" points="1453,-252 1244,-252 1244,-216 1453,-216 1453,-252"/>
<text text-anchor="middle" x="1348.5" y="-230.3" font-family="Times,serif" font-size="14.00" fill="#000000">folium.plugins.fast_marker_cluster</text>
</g>
<!-- folium.plugins&#45;&gt;folium.plugins.fast_marker_cluster -->
<g id="edge23" class="edge">
<title>folium.plugins&#45;&gt;folium.plugins.fast_marker_cluster</title>
<path fill="none" stroke="#000000" d="M1937.8154,-22.4549C1856.2677,-30.451 1695.935,-48.609 1644.5,-72 1621.8114,-82.318 1622.3547,-94.3503 1601.5,-108 1536.1794,-150.7534 1454.3325,-189.0316 1401.7296,-211.8844"/>
<polygon fill="#000000" stroke="#000000" points="1392.2583,-215.9696 1399.6583,-207.8769 1396.8495,-213.9892 1401.4406,-212.0089 1401.4406,-212.0089 1401.4406,-212.0089 1396.8495,-213.9892 1403.2229,-216.141 1392.2583,-215.9696 1392.2583,-215.9696"/>
</g>
<!-- folium.plugins.feature_group_sub_group -->
<g id="node14" class="node">
<title>folium.plugins.feature_group_sub_group</title>
<polygon fill="none" stroke="#000000" points="3291.5,-324 3051.5,-324 3051.5,-288 3291.5,-288 3291.5,-324"/>
<text text-anchor="middle" x="3171.5" y="-302.3" font-family="Times,serif" font-size="14.00" fill="#000000">folium.plugins.feature_group_sub_group</text>
</g>
<!-- folium.plugins&#45;&gt;folium.plugins.feature_group_sub_group -->
<g id="edge24" class="edge">
<title>folium.plugins&#45;&gt;folium.plugins.feature_group_sub_group</title>
<path fill="none" stroke="#000000" d="M2035.2661,-19.8496C2167.6368,-25.2093 2531.5001,-42.2872 2647.5,-72 2745.502,-97.1027 3017.771,-229.6348 3126.1472,-283.3548"/>
<polygon fill="#000000" stroke="#000000" points="3135.1973,-287.8464 3124.2392,-287.4315 3130.7186,-285.6236 3126.2398,-283.4007 3126.2398,-283.4007 3126.2398,-283.4007 3130.7186,-285.6236 3128.2404,-279.3698 3135.1973,-287.8464 3135.1973,-287.8464"/>
</g>
<!-- folium.plugins.float_image -->
<g id="node15" class="node">
<title>folium.plugins.float_image</title>
<polygon fill="none" stroke="#000000" points="1592.5,-108 1426.5,-108 1426.5,-72 1592.5,-72 1592.5,-108"/>
<text text-anchor="middle" x="1509.5" y="-86.3" font-family="Times,serif" font-size="14.00" fill="#000000">folium.plugins.float_image</text>
</g>
<!-- folium.plugins&#45;&gt;folium.plugins.float_image -->
<g id="edge25" class="edge">
<title>folium.plugins&#45;&gt;folium.plugins.float_image</title>
<path fill="none" stroke="#000000" d="M1937.8115,-24.2482C1865.423,-33.6895 1725.1952,-52.5624 1606.5,-72 1605.2165,-72.2102 1603.9237,-72.4238 1602.6234,-72.6403"/>
<polygon fill="#000000" stroke="#000000" points="1592.5352,-74.3525 1601.6412,-68.2426 1597.4647,-73.5158 1602.3942,-72.6791 1602.3942,-72.6791 1602.3942,-72.6791 1597.4647,-73.5158 1603.1472,-77.1157 1592.5352,-74.3525 1592.5352,-74.3525"/>
</g>
<!-- folium.plugins.fullscreen -->
<g id="node16" class="node">
<title>folium.plugins.fullscreen</title>
<polygon fill="none" stroke="#000000" points="347.5,-324 193.5,-324 193.5,-288 347.5,-288 347.5,-324"/>
<text text-anchor="middle" x="270.5" y="-302.3" font-family="Times,serif" font-size="14.00" fill="#000000">folium.plugins.fullscreen</text>
</g>
<!-- folium.plugins&#45;&gt;folium.plugins.fullscreen -->
<g id="edge26" class="edge">
<title>folium.plugins&#45;&gt;folium.plugins.fullscreen</title>
<path fill="none" stroke="#000000" d="M1937.8426,-18.2894C1762.5538,-19.6916 1163.9755,-27.6896 978.5,-72 785.7285,-118.0534 760.3592,-195.1206 570.5,-252 481.1772,-278.76 453.1294,-270.7111 357.8826,-287.8112"/>
<polygon fill="#000000" stroke="#000000" points="347.8263,-289.6645 356.8451,-283.4266 352.7435,-288.7582 357.6607,-287.852 357.6607,-287.852 357.6607,-287.852 352.7435,-288.7582 358.4763,-292.2775 347.8263,-289.6645 347.8263,-289.6645"/>
</g>
<!-- folium.plugins.geocoder -->
<g id="node17" class="node">
<title>folium.plugins.geocoder</title>
<polygon fill="none" stroke="#000000" points="515.5,-324 365.5,-324 365.5,-288 515.5,-288 515.5,-324"/>
<text text-anchor="middle" x="440.5" y="-302.3" font-family="Times,serif" font-size="14.00" fill="#000000">folium.plugins.geocoder</text>
</g>
<!-- folium.plugins&#45;&gt;folium.plugins.geocoder -->
<g id="edge27" class="edge">
<title>folium.plugins&#45;&gt;folium.plugins.geocoder</title>
<path fill="none" stroke="#000000" d="M1937.8345,-19.0943C1778.1423,-22.9841 1271.2038,-37.7827 1111.5,-72 942.9989,-108.1021 907.7035,-143.2231 751.5,-216 719.4298,-230.9418 713.7919,-240.0249 680.5,-252 672.9505,-254.7156 591.5539,-272.8528 525.616,-287.3691"/>
<polygon fill="#000000" stroke="#000000" points="515.5956,-289.5735 524.3952,-283.03 520.4788,-288.4992 525.362,-287.4249 525.362,-287.4249 525.362,-287.4249 520.4788,-288.4992 526.3289,-291.8198 515.5956,-289.5735 515.5956,-289.5735"/>
</g>
<!-- folium.plugins.heat_map -->
<g id="node18" class="node">
<title>folium.plugins.heat_map</title>
<polygon fill="none" stroke="#000000" points="1611.5,-324 1457.5,-324 1457.5,-288 1611.5,-288 1611.5,-324"/>
<text text-anchor="middle" x="1534.5" y="-302.3" font-family="Times,serif" font-size="14.00" fill="#000000">folium.plugins.heat_map</text>
</g>
<!-- folium.plugins&#45;&gt;folium.plugins.heat_map -->
<g id="edge28" class="edge">
<title>folium.plugins&#45;&gt;folium.plugins.heat_map</title>
<path fill="none" stroke="#000000" d="M1937.8695,-24.6549C1877.0773,-33.6977 1777.2563,-51.1521 1746.5,-72 1698.3357,-104.6477 1707.0232,-133.1617 1672.5,-180 1648.2843,-212.8539 1645.5135,-224.3419 1615.5,-252 1603.3676,-263.1803 1588.7102,-273.6859 1575.2174,-282.4056"/>
<polygon fill="#000000" stroke="#000000" points="1566.5572,-287.867 1572.6154,-278.7264 1570.7865,-285.1999 1575.0158,-282.5328 1575.0158,-282.5328 1575.0158,-282.5328 1570.7865,-285.1999 1577.4162,-286.3391 1566.5572,-287.867 1566.5572,-287.867"/>
</g>
<!-- folium.plugins.heat_map_withtime -->
<g id="node19" class="node">
<title>folium.plugins.heat_map_withtime</title>
<polygon fill="none" stroke="#000000" points="1839,-324 1630,-324 1630,-288 1839,-288 1839,-324"/>
<text text-anchor="middle" x="1734.5" y="-302.3" font-family="Times,serif" font-size="14.00" fill="#000000">folium.plugins.heat_map_withtime</text>
</g>
<!-- folium.plugins&#45;&gt;folium.plugins.heat_map_withtime -->
<g id="edge29" class="edge">
<title>folium.plugins&#45;&gt;folium.plugins.heat_map_withtime</title>
<path fill="none" stroke="#000000" d="M1937.9704,-24.109C1882.1805,-32.1547 1795.4564,-48.1378 1773.5,-72 1720.8698,-129.1985 1724.6431,-229.2371 1730.2607,-277.8648"/>
<polygon fill="#000000" stroke="#000000" points="1731.5434,-287.975 1725.8205,-278.6209 1730.914,-283.0148 1730.2847,-278.0545 1730.2847,-278.0545 1730.2847,-278.0545 1730.914,-283.0148 1734.7489,-277.4881 1731.5434,-287.975 1731.5434,-287.975"/>
</g>
<!-- folium.plugins.locate_control -->
<g id="node20" class="node">
<title>folium.plugins.locate_control</title>
<polygon fill="none" stroke="#000000" points="711.5,-324 533.5,-324 533.5,-288 711.5,-288 711.5,-324"/>
<text text-anchor="middle" x="622.5" y="-302.3" font-family="Times,serif" font-size="14.00" fill="#000000">folium.plugins.locate_control</text>
</g>
<!-- folium.plugins&#45;&gt;folium.plugins.locate_control -->
<g id="edge30" class="edge">
<title>folium.plugins&#45;&gt;folium.plugins.locate_control</title>
<path fill="none" stroke="#000000" d="M1937.7708,-19.5376C1791.9283,-24.4409 1360.5177,-41.22 1223.5,-72 1112.2352,-96.9948 797.5377,-230.3599 673.583,-283.8155"/>
<polygon fill="#000000" stroke="#000000" points="664.2905,-287.8274 671.6878,-279.7322 668.881,-285.8455 673.4714,-283.8636 673.4714,-283.8636 673.4714,-283.8636 668.881,-285.8455 675.2551,-287.9951 664.2905,-287.8274 664.2905,-287.8274"/>
</g>
<!-- folium.plugins.marker_cluster -->
<g id="node21" class="node">
<title>folium.plugins.marker_cluster</title>
<polygon fill="none" stroke="#000000" points="1439.5,-324 1257.5,-324 1257.5,-288 1439.5,-288 1439.5,-324"/>
<text text-anchor="middle" x="1348.5" y="-302.3" font-family="Times,serif" font-size="14.00" fill="#000000">folium.plugins.marker_cluster</text>
</g>
<!-- folium.plugins&#45;&gt;folium.plugins.marker_cluster -->
<g id="edge31" class="edge">
<title>folium.plugins&#45;&gt;folium.plugins.marker_cluster</title>
<path fill="none" stroke="#000000" d="M1937.8885,-21.0181C1880.8586,-25.9895 1784.4519,-38.916 1708.5,-72 1583.9666,-126.2456 1578.162,-182.4217 1461.5,-252 1442.0743,-263.5857 1419.7773,-274.6722 1400.1501,-283.7521"/>
<polygon fill="#000000" stroke="#000000" points="1391.0478,-287.9091 1398.2746,-279.6615 1395.596,-285.832 1400.1441,-283.7548 1400.1441,-283.7548 1400.1441,-283.7548 1395.596,-285.832 1402.0136,-287.8481 1391.0478,-287.9091 1391.0478,-287.9091"/>
</g>
<!-- folium.plugins.measure_control -->
<g id="node22" class="node">
<title>folium.plugins.measure_control</title>
<polygon fill="none" stroke="#000000" points="921,-324 730,-324 730,-288 921,-288 921,-324"/>
<text text-anchor="middle" x="825.5" y="-302.3" font-family="Times,serif" font-size="14.00" fill="#000000">folium.plugins.measure_control</text>
</g>
<!-- folium.plugins&#45;&gt;folium.plugins.measure_control -->
<g id="edge32" class="edge">
<title>folium.plugins&#45;&gt;folium.plugins.measure_control</title>
<path fill="none" stroke="#000000" d="M1937.8865,-19.4349C1805.0467,-23.7549 1438.1653,-38.4629 1322.5,-72 1157.1496,-119.9433 1137.374,-183.3334 979.5,-252 951.7328,-264.0772 920.3095,-275.4821 893.1223,-284.6711"/>
<polygon fill="#000000" stroke="#000000" points="883.3122,-287.9534 891.3677,-280.5129 888.0539,-286.3668 892.7955,-284.7803 892.7955,-284.7803 892.7955,-284.7803 888.0539,-286.3668 894.2234,-289.0478 883.3122,-287.9534 883.3122,-287.9534"/>
</g>
<!-- folium.plugins.minimap -->
<g id="node23" class="node">
<title>folium.plugins.minimap</title>
<polygon fill="none" stroke="#000000" points="2007.5,-324 1857.5,-324 1857.5,-288 2007.5,-288 2007.5,-324"/>
<text text-anchor="middle" x="1932.5" y="-302.3" font-family="Times,serif" font-size="14.00" fill="#000000">folium.plugins.minimap</text>
</g>
<!-- folium.plugins&#45;&gt;folium.plugins.minimap -->
<g id="edge33" class="edge">
<title>folium.plugins&#45;&gt;folium.plugins.minimap</title>
<path fill="none" stroke="#000000" d="M1937.6878,-24.7255C1885.9038,-32.9783 1809.1526,-48.7947 1791.5,-72 1736.8965,-143.7794 1841.1986,-238.0266 1898.4714,-281.764"/>
<polygon fill="#000000" stroke="#000000" points="1906.5557,-287.8418 1895.8585,-285.4294 1902.5592,-284.8372 1898.5627,-281.8325 1898.5627,-281.8325 1898.5627,-281.8325 1902.5592,-284.8372 1901.2668,-278.2357 1906.5557,-287.8418 1906.5557,-287.8418"/>
</g>
<!-- folium.plugins.mouse_position -->
<g id="node24" class="node">
<title>folium.plugins.mouse_position</title>
<polygon fill="none" stroke="#000000" points="1126,-324 939,-324 939,-288 1126,-288 1126,-324"/>
<text text-anchor="middle" x="1032.5" y="-302.3" font-family="Times,serif" font-size="14.00" fill="#000000">folium.plugins.mouse_position</text>
</g>
<!-- folium.plugins&#45;&gt;folium.plugins.mouse_position -->
<g id="edge34" class="edge">
<title>folium.plugins&#45;&gt;folium.plugins.mouse_position</title>
<path fill="none" stroke="#000000" d="M1937.8638,-19.64C1816.7892,-24.1829 1504.5802,-38.8474 1406.5,-72 1264.4356,-120.0199 1120.9107,-231.4619 1061.2573,-281.226"/>
<polygon fill="#000000" stroke="#000000" points="1053.4055,-287.8256 1058.1652,-277.9465 1057.2331,-284.6085 1061.0607,-281.3913 1061.0607,-281.3913 1061.0607,-281.3913 1057.2331,-284.6085 1063.9561,-284.8362 1053.4055,-287.8256 1053.4055,-287.8256"/>
</g>
<!-- folium.plugins.pattern -->
<g id="node25" class="node">
<title>folium.plugins.pattern</title>
<polygon fill="none" stroke="#000000" points="2074.5,-252 1936.5,-252 1936.5,-216 2074.5,-216 2074.5,-252"/>
<text text-anchor="middle" x="2005.5" y="-230.3" font-family="Times,serif" font-size="14.00" fill="#000000">folium.plugins.pattern</text>
</g>
<!-- folium.plugins&#45;&gt;folium.plugins.pattern -->
<g id="edge35" class="edge">
<title>folium.plugins&#45;&gt;folium.plugins.pattern</title>
<path fill="none" stroke="#000000" d="M1985.3368,-36.1132C1983.5342,-54.9313 1978.9731,-84.8128 1967.5,-108 1958.136,-126.9247 1943.8482,-124.2053 1936.5,-144 1930.9317,-158.9998 1929.492,-165.6164 1936.5,-180 1942.2304,-191.7614 1951.8987,-201.7151 1962.2121,-209.7482"/>
<polygon fill="#000000" stroke="#000000" points="1970.5585,-215.7767 1959.8171,-213.5694 1966.5052,-212.8491 1962.4519,-209.9214 1962.4519,-209.9214 1962.4519,-209.9214 1966.5052,-212.8491 1965.0868,-206.2735 1970.5585,-215.7767 1970.5585,-215.7767"/>
</g>
<!-- folium.plugins.polyline_offset -->
<g id="node26" class="node">
<title>folium.plugins.polyline_offset</title>
<polygon fill="none" stroke="#000000" points="2857.5,-324 2675.5,-324 2675.5,-288 2857.5,-288 2857.5,-324"/>
<text text-anchor="middle" x="2766.5" y="-302.3" font-family="Times,serif" font-size="14.00" fill="#000000">folium.plugins.polyline_offset</text>
</g>
<!-- folium.plugins&#45;&gt;folium.plugins.polyline_offset -->
<g id="edge36" class="edge">
<title>folium.plugins&#45;&gt;folium.plugins.polyline_offset</title>
<path fill="none" stroke="#000000" d="M2035.0976,-21.3183C2087.9609,-26.4889 2173.827,-39.5256 2240.5,-72 2285.3158,-93.8285 2290.8235,-109.1844 2326.5,-144 2372.2522,-188.6481 2365.3257,-221.485 2421.5,-252 2515.377,-302.9958 2555.5093,-272.1835 2665.1177,-287.8942"/>
<polygon fill="#000000" stroke="#000000" points="2675.2352,-289.4473 2664.6681,-292.3778 2670.2931,-288.6886 2665.351,-287.9299 2665.351,-287.9299 2665.351,-287.9299 2670.2931,-288.6886 2666.0338,-283.482 2675.2352,-289.4473 2675.2352,-289.4473"/>
</g>
<!-- folium.plugins.polyline_text_path -->
<g id="node27" class="node">
<title>folium.plugins.polyline_text_path</title>
<polygon fill="none" stroke="#000000" points="2147.5,-180 1945.5,-180 1945.5,-144 2147.5,-144 2147.5,-180"/>
<text text-anchor="middle" x="2046.5" y="-158.3" font-family="Times,serif" font-size="14.00" fill="#000000">folium.plugins.polyline_text_path</text>
</g>
<!-- folium.plugins&#45;&gt;folium.plugins.polyline_text_path -->
<g id="edge37" class="edge">
<title>folium.plugins&#45;&gt;folium.plugins.polyline_text_path</title>
<path fill="none" stroke="#000000" d="M1994.099,-36.2377C2004.4231,-61.0154 2022.9703,-105.5286 2035.0025,-134.4061"/>
<polygon fill="#000000" stroke="#000000" points="2038.9627,-143.9104 2030.9626,-136.4104 2037.0396,-139.295 2035.1164,-134.6796 2035.1164,-134.6796 2035.1164,-134.6796 2037.0396,-139.295 2039.2703,-132.9488 2038.9627,-143.9104 2038.9627,-143.9104"/>
</g>
<!-- folium.plugins.scroll_zoom_toggler -->
<g id="node28" class="node">
<title>folium.plugins.scroll_zoom_toggler</title>
<polygon fill="none" stroke="#000000" points="2639,-108 2426,-108 2426,-72 2639,-72 2639,-108"/>
<text text-anchor="middle" x="2532.5" y="-86.3" font-family="Times,serif" font-size="14.00" fill="#000000">folium.plugins.scroll_zoom_toggler</text>
</g>
<!-- folium.plugins&#45;&gt;folium.plugins.scroll_zoom_toggler -->
<g id="edge38" class="edge">
<title>folium.plugins&#45;&gt;folium.plugins.scroll_zoom_toggler</title>
<path fill="none" stroke="#000000" d="M2035.3052,-23.8584C2114.3781,-33.4271 2275.3749,-53.2292 2411.5,-72 2412.9793,-72.204 2414.4686,-72.4103 2415.9663,-72.6188"/>
<polygon fill="#000000" stroke="#000000" points="2425.9545,-74.0219 2415.4257,-77.087 2421.0031,-73.3263 2416.0517,-72.6307 2416.0517,-72.6307 2416.0517,-72.6307 2421.0031,-73.3263 2416.6777,-68.1745 2425.9545,-74.0219 2425.9545,-74.0219"/>
</g>
<!-- folium.plugins.search -->
<g id="node29" class="node">
<title>folium.plugins.search</title>
<polygon fill="none" stroke="#000000" points="3568,-108 3433,-108 3433,-72 3568,-72 3568,-108"/>
<text text-anchor="middle" x="3500.5" y="-86.3" font-family="Times,serif" font-size="14.00" fill="#000000">folium.plugins.search</text>
</g>
<!-- folium.plugins&#45;&gt;folium.plugins.search -->
<g id="edge39" class="edge">
<title>folium.plugins&#45;&gt;folium.plugins.search</title>
<path fill="none" stroke="#000000" d="M2035.2396,-19.2717C2248.6208,-24.7649 3100.9254,-47.2984 3368.5,-72 3385.9256,-73.6087 3404.6523,-76.0041 3422.3938,-78.5266"/>
<polygon fill="#000000" stroke="#000000" points="3432.7086,-80.0214 3422.1665,-83.0406 3427.7603,-79.3043 3422.812,-78.5871 3422.812,-78.5871 3422.812,-78.5871 3427.7603,-79.3043 3423.4574,-74.1336 3432.7086,-80.0214 3432.7086,-80.0214"/>
</g>
<!-- folium.plugins.semicircle -->
<g id="node30" class="node">
<title>folium.plugins.semicircle</title>
<polygon fill="none" stroke="#000000" points="3033,-324 2876,-324 2876,-288 3033,-288 3033,-324"/>
<text text-anchor="middle" x="2954.5" y="-302.3" font-family="Times,serif" font-size="14.00" fill="#000000">folium.plugins.semicircle</text>
</g>
<!-- folium.plugins&#45;&gt;folium.plugins.semicircle -->
<g id="edge40" class="edge">
<title>folium.plugins&#45;&gt;folium.plugins.semicircle</title>
<path fill="none" stroke="#000000" d="M2035.0516,-23.8915C2093.9102,-31.7231 2195.7492,-47.4954 2280.5,-72 2487.0341,-131.7167 2524.6499,-186.7399 2729.5,-252 2773.883,-266.1393 2824.2208,-278.5486 2866.0133,-287.8942"/>
<polygon fill="#000000" stroke="#000000" points="2875.8925,-290.0821 2865.156,-292.3133 2871.0108,-289.0009 2866.1291,-287.9197 2866.1291,-287.9197 2866.1291,-287.9197 2871.0108,-289.0009 2867.1021,-283.5262 2875.8925,-290.0821 2875.8925,-290.0821"/>
</g>
<!-- folium.plugins.terminator -->
<g id="node31" class="node">
<title>folium.plugins.terminator</title>
<polygon fill="none" stroke="#000000" points="1958.5,-108 1800.5,-108 1800.5,-72 1958.5,-72 1958.5,-108"/>
<text text-anchor="middle" x="1879.5" y="-86.3" font-family="Times,serif" font-size="14.00" fill="#000000">folium.plugins.terminator</text>
</g>
<!-- folium.plugins&#45;&gt;folium.plugins.terminator -->
<g id="edge41" class="edge">
<title>folium.plugins&#45;&gt;folium.plugins.terminator</title>
<path fill="none" stroke="#000000" d="M1959.4994,-36.1686C1946.0669,-45.2073 1929.6527,-56.2524 1915.1961,-65.9802"/>
<polygon fill="#000000" stroke="#000000" points="1906.492,-71.8372 1912.2763,-62.5209 1910.6403,-69.0458 1914.7886,-66.2544 1914.7886,-66.2544 1914.7886,-66.2544 1910.6403,-69.0458 1917.3008,-69.9879 1906.492,-71.8372 1906.492,-71.8372"/>
</g>
<!-- folium.plugins.time_slider_choropleth -->
<g id="node32" class="node">
<title>folium.plugins.time_slider_choropleth</title>
<polygon fill="none" stroke="#000000" points="3223,-180 2996,-180 2996,-144 3223,-144 3223,-180"/>
<text text-anchor="middle" x="3109.5" y="-158.3" font-family="Times,serif" font-size="14.00" fill="#000000">folium.plugins.time_slider_choropleth</text>
</g>
<!-- folium.plugins&#45;&gt;folium.plugins.time_slider_choropleth -->
<g id="edge42" class="edge">
<title>folium.plugins&#45;&gt;folium.plugins.time_slider_choropleth</title>
<path fill="none" stroke="#000000" d="M2035.0727,-20.2522C2181.5173,-27.2242 2617.2521,-49.3493 2757.5,-72 2858.3064,-88.2807 2972.3799,-119.9605 3042.63,-141.0532"/>
<polygon fill="#000000" stroke="#000000" points="3052.2458,-143.9565 3041.3719,-145.3739 3047.4592,-142.5113 3042.6727,-141.066 3042.6727,-141.066 3042.6727,-141.066 3047.4592,-142.5113 3043.9734,-136.7581 3052.2458,-143.9565 3052.2458,-143.9565"/>
</g>
<!-- folium.plugins.timestamped_geo_json -->
<g id="node33" class="node">
<title>folium.plugins.timestamped_geo_json</title>
<polygon fill="none" stroke="#000000" points="4047,-252 3820,-252 3820,-216 4047,-216 4047,-252"/>
<text text-anchor="middle" x="3933.5" y="-230.3" font-family="Times,serif" font-size="14.00" fill="#000000">folium.plugins.timestamped_geo_json</text>
</g>
<!-- folium.plugins&#45;&gt;folium.plugins.timestamped_geo_json -->
<g id="edge43" class="edge">
<title>folium.plugins&#45;&gt;folium.plugins.timestamped_geo_json</title>
<path fill="none" stroke="#000000" d="M2035.1623,-18.5189C2285.7037,-21.3424 3424.3849,-36.0701 3577.5,-72 3700.3683,-100.8322 3832.4744,-173.1887 3895.6416,-210.6738"/>
<polygon fill="#000000" stroke="#000000" points="3904.4518,-215.942 3893.5597,-214.672 3900.1605,-213.3759 3895.8692,-210.8098 3895.8692,-210.8098 3895.8692,-210.8098 3900.1605,-213.3759 3898.1786,-206.9476 3904.4518,-215.942 3904.4518,-215.942"/>
</g>
<!-- folium.plugins.timestamped_wmstilelayer -->
<g id="node34" class="node">
<title>folium.plugins.timestamped_wmstilelayer</title>
<polygon fill="none" stroke="#000000" points="4239.5,-324 3991.5,-324 3991.5,-288 4239.5,-288 4239.5,-324"/>
<text text-anchor="middle" x="4115.5" y="-302.3" font-family="Times,serif" font-size="14.00" fill="#000000">folium.plugins.timestamped_wmstilelayer</text>
</g>
<!-- folium.plugins&#45;&gt;folium.plugins.timestamped_wmstilelayer -->
<g id="edge44" class="edge">
<title>folium.plugins&#45;&gt;folium.plugins.timestamped_wmstilelayer</title>
<path fill="none" stroke="#000000" d="M2035.1328,-18.8159C2300.4071,-23.3575 3567.0955,-46.2462 3739.5,-72 3980.4923,-107.9994 4120.5497,-22.3923 4268.5,-216 4292.6949,-247.6614 4253.4161,-270.2995 4208.6108,-284.9521"/>
<polygon fill="#000000" stroke="#000000" points="4198.9868,-287.958 4207.1905,-280.6813 4203.7595,-286.4673 4208.5321,-284.9766 4208.5321,-284.9766 4208.5321,-284.9766 4203.7595,-286.4673 4209.8737,-289.272 4198.9868,-287.958 4198.9868,-287.958"/>
</g>
<!-- folium.plugins.vectorgrid_protobuf -->
<g id="node35" class="node">
<title>folium.plugins.vectorgrid_protobuf</title>
<polygon fill="none" stroke="#000000" points="3557,-324 3348,-324 3348,-288 3557,-288 3557,-324"/>
<text text-anchor="middle" x="3452.5" y="-302.3" font-family="Times,serif" font-size="14.00" fill="#000000">folium.plugins.vectorgrid_protobuf</text>
</g>
<!-- folium.plugins&#45;&gt;folium.plugins.vectorgrid_protobuf -->
<g id="edge45" class="edge">
<title>folium.plugins&#45;&gt;folium.plugins.vectorgrid_protobuf</title>
<path fill="none" stroke="#000000" d="M2035.19,-18.9912C2237.3838,-23.7034 3010.5238,-47.7911 3231.5,-144 3309.8881,-178.1287 3387.1319,-244.1779 3426.206,-280.5104"/>
<polygon fill="#000000" stroke="#000000" points="3433.9513,-287.7902 3423.5826,-284.2205 3430.3079,-284.3658 3426.6646,-280.9415 3426.6646,-280.9415 3426.6646,-280.9415 3430.3079,-284.3658 3429.7465,-277.6624 3433.9513,-287.7902 3433.9513,-287.7902"/>
</g>
<!-- folium.plugins.antpath&#45;&gt;folium.elements -->
<g id="edge46" class="edge">
<title>folium.plugins.antpath&#45;&gt;folium.elements</title>
<path fill="none" stroke="#000000" d="M2308.2771,-324.0757C2279.1694,-333.9613 2242.9334,-346.2679 2212.4306,-356.6274"/>
<polygon fill="#000000" stroke="#000000" points="2202.7448,-359.9169 2210.7665,-352.44 2207.4792,-358.3089 2212.2136,-356.701 2212.2136,-356.701 2212.2136,-356.701 2207.4792,-358.3089 2213.6608,-360.9619 2202.7448,-359.9169 2202.7448,-359.9169"/>
</g>
<!-- folium.plugins.antpath&#45;&gt;folium.vector_layers -->
<g id="edge47" class="edge">
<title>folium.plugins.antpath&#45;&gt;folium.vector_layers</title>
<path fill="none" stroke="#000000" d="M2431.6559,-317.2567C2447.0721,-319.6008 2463.324,-321.9726 2478.5,-324 2619.8796,-342.8872 2785.4605,-360.7036 2879.3654,-370.4073"/>
<polygon fill="#000000" stroke="#000000" points="2889.3402,-371.4354 2878.9315,-374.8863 2884.3665,-370.9227 2879.3929,-370.41 2879.3929,-370.41 2879.3929,-370.41 2884.3665,-370.9227 2879.8543,-365.9338 2889.3402,-371.4354 2889.3402,-371.4354"/>
</g>
<!-- folium.plugins.beautify_icon&#45;&gt;folium.elements -->
<g id="edge48" class="edge">
<title>folium.plugins.beautify_icon&#45;&gt;folium.elements</title>
<path fill="none" stroke="#000000" d="M175.1791,-322.9039C178.3199,-323.3075 181.4341,-323.6754 184.5,-324 566.0185,-364.3913 1793.0704,-375.4868 2086.184,-377.5898"/>
<polygon fill="#000000" stroke="#000000" points="2096.214,-377.6608 2086.1824,-382.0898 2091.2142,-377.6254 2086.2143,-377.5899 2086.2143,-377.5899 2086.2143,-377.5899 2091.2142,-377.6254 2086.2462,-373.09 2096.214,-377.6608 2096.214,-377.6608"/>
</g>
<!-- folium.plugins.beautify_icon&#45;&gt;folium.utilities -->
<g id="edge49" class="edge">
<title>folium.plugins.beautify_icon&#45;&gt;folium.utilities</title>
<path fill="none" stroke="#000000" d="M132.1016,-324.0674C221.3528,-359.2549 429.0293,-436.2984 611.5,-468 838.7833,-507.4871 1560.8382,-518.8531 1773.2062,-521.3813"/>
<polygon fill="#000000" stroke="#000000" points="1783.2257,-521.4984 1773.1737,-525.8811 1778.226,-521.4399 1773.2264,-521.3814 1773.2264,-521.3814 1773.2264,-521.3814 1778.226,-521.4399 1773.279,-516.8817 1783.2257,-521.4984 1783.2257,-521.4984"/>
</g>
<!-- folium.plugins.boat_marker&#45;&gt;folium.elements -->
<g id="edge50" class="edge">
<title>folium.plugins.boat_marker&#45;&gt;folium.elements</title>
<path fill="none" stroke="#000000" d="M2487.4588,-321.5454C2482.7379,-322.3824 2478.0607,-323.2054 2473.5,-324 2382.978,-339.7719 2278.0512,-357.0824 2212.7141,-367.7465"/>
<polygon fill="#000000" stroke="#000000" points="2202.5761,-369.3997 2211.7215,-363.3488 2207.5109,-368.5949 2212.4458,-367.7902 2212.4458,-367.7902 2212.4458,-367.7902 2207.5109,-368.5949 2213.17,-372.2315 2202.5761,-369.3997 2202.5761,-369.3997"/>
</g>
<!-- folium.plugins.boat_marker&#45;&gt;folium.map -->
<g id="edge51" class="edge">
<title>folium.plugins.boat_marker&#45;&gt;folium.map</title>
<path fill="none" stroke="#000000" d="M2625.3036,-324.0354C2686.1651,-344.2106 2789.5125,-376.5991 2880.5,-396 3002.6916,-422.0544 3148.9543,-438.2142 3224.5899,-445.4792"/>
<polygon fill="#000000" stroke="#000000" points="3234.7838,-446.4454 3224.4038,-449.9816 3229.8061,-445.9735 3224.8284,-445.5017 3224.8284,-445.5017 3224.8284,-445.5017 3229.8061,-445.9735 3225.2531,-441.0218 3234.7838,-446.4454 3234.7838,-446.4454"/>
</g>
<!-- folium.plugins.boat_marker&#45;&gt;folium.utilities -->
<g id="edge52" class="edge">
<title>folium.plugins.boat_marker&#45;&gt;folium.utilities</title>
<path fill="none" stroke="#000000" d="M2510.6808,-324.0445C2370.3822,-364.9965 2029.4093,-464.5238 1891.6732,-504.7278"/>
<polygon fill="#000000" stroke="#000000" points="1881.7209,-507.6328 1890.0593,-500.511 1886.5206,-506.2318 1891.3203,-504.8308 1891.3203,-504.8308 1891.3203,-504.8308 1886.5206,-506.2318 1892.5812,-509.1505 1881.7209,-507.6328 1881.7209,-507.6328"/>
</g>
<!-- folium.plugins.draw&#45;&gt;folium.elements -->
<g id="edge53" class="edge">
<title>folium.plugins.draw&#45;&gt;folium.elements</title>
<path fill="none" stroke="#000000" d="M2220.2124,-180.4119C2208.2545,-204.6298 2187.3675,-248.7238 2173.5,-288 2166.2991,-308.3948 2160.0714,-332.0455 2155.7656,-349.9829"/>
<polygon fill="#000000" stroke="#000000" points="2153.4596,-359.8161 2151.3617,-349.0528 2154.6012,-354.9482 2155.7428,-350.0803 2155.7428,-350.0803 2155.7428,-350.0803 2154.6012,-354.9482 2160.124,-351.1077 2153.4596,-359.8161 2153.4596,-359.8161"/>
</g>
<!-- folium.plugins.dual_map&#45;&gt;folium.elements -->
<g id="edge54" class="edge">
<title>folium.plugins.dual_map&#45;&gt;folium.elements</title>
<path fill="none" stroke="#000000" d="M4103.9392,-248.2185C4058.3686,-257.5172 3999.9828,-271.0767 3949.5,-288 3912.1475,-300.5216 3906.9041,-315.2178 3868.5,-324 3827.3758,-333.4043 2518.4827,-368.3066 2212.8608,-376.3426"/>
<polygon fill="#000000" stroke="#000000" points="2202.8386,-376.6059 2212.7169,-371.8447 2207.8369,-376.4745 2212.8352,-376.3431 2212.8352,-376.3431 2212.8352,-376.3431 2207.8369,-376.4745 2212.9534,-380.8416 2202.8386,-376.6059 2202.8386,-376.6059"/>
</g>
<!-- folium.plugins.dual_map&#45;&gt;folium.folium -->
<g id="edge55" class="edge">
<title>folium.plugins.dual_map&#45;&gt;folium.folium</title>
<path fill="none" stroke="#000000" d="M4103.6955,-249.1814C4033.6922,-262.8406 3932.4661,-282.592 3869.6653,-294.8458"/>
<polygon fill="#000000" stroke="#000000" points="3859.5462,-296.8202 3868.4993,-290.4884 3864.4537,-295.8627 3869.3611,-294.9051 3869.3611,-294.9051 3869.3611,-294.9051 3864.4537,-295.8627 3870.223,-299.3218 3859.5462,-296.8202 3859.5462,-296.8202"/>
</g>
<!-- folium.plugins.dual_map&#45;&gt;folium.map -->
<g id="edge56" class="edge">
<title>folium.plugins.dual_map&#45;&gt;folium.map</title>
<path fill="none" stroke="#000000" d="M4103.842,-249.6762C4056.9812,-260.1613 4002.5727,-274.4674 3982.5,-288 3932.5282,-321.69 3953.28,-366.9058 3900.5,-396 3850.7175,-423.4418 3466.4536,-442.0392 3326.3764,-447.9667"/>
<polygon fill="#000000" stroke="#000000" points="3316.328,-448.3878 3326.1307,-443.4729 3321.3236,-448.1784 3326.3192,-447.969 3326.3192,-447.969 3326.3192,-447.969 3321.3236,-448.1784 3326.5077,-452.465 3316.328,-448.3878 3316.328,-448.3878"/>
</g>
<!-- folium.plugins.dual_map&#45;&gt;folium.utilities -->
<g id="edge57" class="edge">
<title>folium.plugins.dual_map&#45;&gt;folium.utilities</title>
<path fill="none" stroke="#000000" d="M4226.4789,-252.0145C4241.674,-260.5241 4256.9432,-272.3268 4265.5,-288 4273.167,-302.0434 4270.2817,-308.7312 4265.5,-324 4226.6022,-448.2071 4138.5228,-444.5351 4010.5,-468 3797.2627,-507.0835 2219.1815,-519.4731 1891.843,-521.6349"/>
<polygon fill="#000000" stroke="#000000" points="1881.6253,-521.7017 1891.5956,-517.1363 1886.6252,-521.6689 1891.6251,-521.6362 1891.6251,-521.6362 1891.6251,-521.6362 1886.6252,-521.6689 1891.6545,-526.1361 1881.6253,-521.7017 1881.6253,-521.7017"/>
</g>
<!-- folium.plugins.fast_marker_cluster&#45;&gt;folium.plugins.marker_cluster -->
<g id="edge58" class="edge">
<title>folium.plugins.fast_marker_cluster&#45;&gt;folium.plugins.marker_cluster</title>
<path fill="none" stroke="#000000" d="M1348.5,-252.1686C1348.5,-259.869 1348.5,-269.0257 1348.5,-277.5834"/>
<polygon fill="#000000" stroke="#000000" points="1348.5,-287.5867 1344.0001,-277.5867 1348.5,-282.5867 1348.5001,-277.5867 1348.5001,-277.5867 1348.5001,-277.5867 1348.5,-282.5867 1353.0001,-277.5868 1348.5,-287.5867 1348.5,-287.5867"/>
</g>
<!-- folium.plugins.fast_marker_cluster&#45;&gt;folium.utilities -->
<g id="edge59" class="edge">
<title>folium.plugins.fast_marker_cluster&#45;&gt;folium.utilities</title>
<path fill="none" stroke="#000000" d="M1259.1805,-252.0794C1223.3551,-261.3053 1188.0359,-273.6241 1177.5,-288 1130.2096,-352.5261 1123.3052,-409.1534 1177.5,-468 1217.4287,-511.356 1619.6154,-519.9029 1773.2633,-521.587"/>
<polygon fill="#000000" stroke="#000000" points="1783.4534,-521.6926 1773.4073,-526.0887 1778.4537,-521.6407 1773.4539,-521.5889 1773.4539,-521.5889 1773.4539,-521.5889 1778.4537,-521.6407 1773.5006,-517.0891 1783.4534,-521.6926 1783.4534,-521.6926"/>
</g>
<!-- folium.plugins.feature_group_sub_group&#45;&gt;folium.elements -->
<g id="edge60" class="edge">
<title>folium.plugins.feature_group_sub_group&#45;&gt;folium.elements</title>
<path fill="none" stroke="#000000" d="M3051.4811,-322.9613C3048.1198,-323.326 3044.7876,-323.6734 3041.5,-324 2731.487,-354.7999 2358.9919,-370.5062 2212.7807,-375.8471"/>
<polygon fill="#000000" stroke="#000000" points="2202.6485,-376.2138 2212.4791,-371.3549 2207.6452,-376.0329 2212.6419,-375.852 2212.6419,-375.852 2212.6419,-375.852 2207.6452,-376.0329 2212.8047,-380.349 2202.6485,-376.2138 2202.6485,-376.2138"/>
</g>
<!-- folium.plugins.feature_group_sub_group&#45;&gt;folium.map -->
<g id="edge61" class="edge">
<title>folium.plugins.feature_group_sub_group&#45;&gt;folium.map</title>
<path fill="none" stroke="#000000" d="M3184.6717,-324.2377C3202.8011,-349.34 3235.5599,-394.6983 3256.3849,-423.5329"/>
<polygon fill="#000000" stroke="#000000" points="3262.4353,-431.9104 3252.9323,-426.4383 3259.5078,-427.857 3256.5803,-423.8036 3256.5803,-423.8036 3256.5803,-423.8036 3259.5078,-427.857 3260.2284,-421.1688 3262.4353,-431.9104 3262.4353,-431.9104"/>
</g>
<!-- folium.plugins.fullscreen&#45;&gt;folium.elements -->
<g id="edge62" class="edge">
<title>folium.plugins.fullscreen&#45;&gt;folium.elements</title>
<path fill="none" stroke="#000000" d="M347.7491,-322.8384C350.6974,-323.2679 353.622,-323.6582 356.5,-324 701.7095,-365.0004 1808.4541,-375.5579 2085.94,-377.5879"/>
<polygon fill="#000000" stroke="#000000" points="2096.2295,-377.6621 2086.1973,-382.0898 2091.2296,-377.626 2086.2297,-377.5899 2086.2297,-377.5899 2086.2297,-377.5899 2091.2296,-377.626 2086.2622,-373.0901 2096.2295,-377.6621 2096.2295,-377.6621"/>
</g>
<!-- folium.plugins.fullscreen&#45;&gt;folium.utilities -->
<g id="edge63" class="edge">
<title>folium.plugins.fullscreen&#45;&gt;folium.utilities</title>
<path fill="none" stroke="#000000" d="M312.3594,-324.0059C396.1469,-359.0841 591.2268,-435.943 763.5,-468 959.5813,-504.4873 1578.4466,-517.7521 1773.2112,-521.0847"/>
<polygon fill="#000000" stroke="#000000" points="1783.2536,-521.2541 1773.1791,-525.5847 1778.2543,-521.1698 1773.2551,-521.0854 1773.2551,-521.0854 1773.2551,-521.0854 1778.2543,-521.1698 1773.331,-516.586 1783.2536,-521.2541 1783.2536,-521.2541"/>
</g>
<!-- folium.plugins.geocoder&#45;&gt;folium.elements -->
<g id="edge64" class="edge">
<title>folium.plugins.geocoder&#45;&gt;folium.elements</title>
<path fill="none" stroke="#000000" d="M515.9487,-322.8294C518.8296,-323.2615 521.6874,-323.6547 524.5,-324 835.0179,-362.1214 1826.12,-374.712 2086.3998,-377.4036"/>
<polygon fill="#000000" stroke="#000000" points="2096.4369,-377.5062 2086.3914,-381.9037 2091.4372,-377.4551 2086.4374,-377.4039 2086.4374,-377.4039 2086.4374,-377.4039 2091.4372,-377.4551 2086.4835,-372.9042 2096.4369,-377.5062 2096.4369,-377.5062"/>
</g>
<!-- folium.plugins.geocoder&#45;&gt;folium.utilities -->
<g id="edge65" class="edge">
<title>folium.plugins.geocoder&#45;&gt;folium.utilities</title>
<path fill="none" stroke="#000000" d="M479.1931,-324.089C556.2463,-359.1368 735.1824,-435.6839 894.5,-468 1063.6802,-502.3166 1594.3092,-516.8014 1773.0522,-520.7896"/>
<polygon fill="#000000" stroke="#000000" points="1783.3095,-521.0156 1773.2128,-525.2942 1778.3107,-520.9054 1773.3119,-520.7953 1773.3119,-520.7953 1773.3119,-520.7953 1778.3107,-520.9054 1773.4111,-516.2964 1783.3095,-521.0156 1783.3095,-521.0156"/>
</g>
<!-- folium.plugins.heat_map&#45;&gt;folium.elements -->
<g id="edge66" class="edge">
<title>folium.plugins.heat_map&#45;&gt;folium.elements</title>
<path fill="none" stroke="#000000" d="M1611.7853,-322.574C1614.7235,-323.0776 1617.636,-323.5554 1620.5,-324 1787.6823,-349.9559 1986.6023,-366.4232 2086.1421,-373.6854"/>
<polygon fill="#000000" stroke="#000000" points="2096.3308,-374.4219 2086.0323,-378.1892 2091.3438,-374.0614 2086.3568,-373.7009 2086.3568,-373.7009 2086.3568,-373.7009 2091.3438,-374.0614 2086.6812,-369.2126 2096.3308,-374.4219 2096.3308,-374.4219"/>
</g>
<!-- folium.plugins.heat_map&#45;&gt;folium.map -->
<g id="edge67" class="edge">
<title>folium.plugins.heat_map&#45;&gt;folium.map</title>
<path fill="none" stroke="#000000" d="M1611.8268,-322.3327C1614.7534,-322.9038 1617.6522,-323.4615 1620.5,-324 1714.8377,-341.8378 1741.3374,-333.0958 1833.5,-360 1872.8826,-371.4966 1878.4643,-387.0389 1918.5,-396 2047.5917,-424.8943 2993.2496,-444.6285 3224.5551,-449.0569"/>
<polygon fill="#000000" stroke="#000000" points="3234.7084,-449.2502 3224.6245,-453.5589 3229.7093,-449.155 3224.7102,-449.0598 3224.7102,-449.0598 3224.7102,-449.0598 3229.7093,-449.155 3224.7959,-444.5606 3234.7084,-449.2502 3234.7084,-449.2502"/>
</g>
<!-- folium.plugins.heat_map&#45;&gt;folium.utilities -->
<g id="edge68" class="edge">
<title>folium.plugins.heat_map&#45;&gt;folium.utilities</title>
<path fill="none" stroke="#000000" d="M1559.3948,-324.0445C1612.8593,-362.7974 1738.6897,-454.0033 1799.052,-497.7558"/>
<polygon fill="#000000" stroke="#000000" points="1807.4665,-503.8549 1796.7288,-501.6297 1803.4181,-500.9205 1799.3698,-497.9861 1799.3698,-497.9861 1799.3698,-497.9861 1803.4181,-500.9205 1802.0107,-494.3426 1807.4665,-503.8549 1807.4665,-503.8549"/>
</g>
<!-- folium.plugins.heat_map_withtime&#45;&gt;folium.elements -->
<g id="edge69" class="edge">
<title>folium.plugins.heat_map_withtime&#45;&gt;folium.elements</title>
<path fill="none" stroke="#000000" d="M1838.4188,-324.0293C1916.2458,-337.5318 2020.2195,-355.5706 2086.0355,-366.9893"/>
<polygon fill="#000000" stroke="#000000" points="2096.2611,-368.7634 2085.639,-371.4877 2091.3347,-367.9086 2086.4083,-367.0539 2086.4083,-367.0539 2086.4083,-367.0539 2091.3347,-367.9086 2087.1776,-362.6201 2096.2611,-368.7634 2096.2611,-368.7634"/>
</g>
<!-- folium.plugins.heat_map_withtime&#45;&gt;folium.map -->
<g id="edge70" class="edge">
<title>folium.plugins.heat_map_withtime&#45;&gt;folium.map</title>
<path fill="none" stroke="#000000" d="M1790.3288,-324.0132C1859.3153,-345.3884 1980.6819,-380.1257 2087.5,-396 2312.0806,-429.3751 3027.6563,-445.261 3224.7931,-449.0742"/>
<polygon fill="#000000" stroke="#000000" points="3234.8713,-449.2673 3224.7868,-453.5748 3229.8722,-449.1714 3224.8731,-449.0756 3224.8731,-449.0756 3224.8731,-449.0756 3229.8722,-449.1714 3224.9594,-444.5764 3234.8713,-449.2673 3234.8713,-449.2673"/>
</g>
<!-- folium.plugins.heat_map_withtime&#45;&gt;folium.utilities -->
<g id="edge71" class="edge">
<title>folium.plugins.heat_map_withtime&#45;&gt;folium.utilities</title>
<path fill="none" stroke="#000000" d="M1742.6869,-324.0445C1759.8729,-361.9238 1799.7962,-449.9182 1820.1257,-494.726"/>
<polygon fill="#000000" stroke="#000000" points="1824.2675,-503.8549 1816.0378,-496.6077 1822.2016,-499.3017 1820.1358,-494.7484 1820.1358,-494.7484 1820.1358,-494.7484 1822.2016,-499.3017 1824.2337,-492.8891 1824.2675,-503.8549 1824.2675,-503.8549"/>
</g>
<!-- folium.plugins.locate_control&#45;&gt;folium.elements -->
<g id="edge72" class="edge">
<title>folium.plugins.locate_control&#45;&gt;folium.elements</title>
<path fill="none" stroke="#000000" d="M711.6177,-322.9305C714.6099,-323.3194 717.5769,-323.678 720.5,-324 990.8634,-353.7811 1845.3071,-372.1423 2085.8981,-376.8149"/>
<polygon fill="#000000" stroke="#000000" points="2096.2172,-377.0142 2086.1322,-381.3201 2091.2182,-376.9176 2086.2191,-376.821 2086.2191,-376.821 2086.2191,-376.821 2091.2182,-376.9176 2086.306,-372.3218 2096.2172,-377.0142 2096.2172,-377.0142"/>
</g>
<!-- folium.plugins.locate_control&#45;&gt;folium.utilities -->
<g id="edge73" class="edge">
<title>folium.plugins.locate_control&#45;&gt;folium.utilities</title>
<path fill="none" stroke="#000000" d="M655.2153,-324.2161C720.0824,-359.3105 870.5815,-435.6776 1007.5,-468 1153.1652,-502.3872 1608.9956,-516.5844 1772.982,-520.6662"/>
<polygon fill="#000000" stroke="#000000" points="1783.355,-520.9205 1773.2477,-525.1739 1778.3565,-520.7979 1773.358,-520.6753 1773.358,-520.6753 1773.358,-520.6753 1778.3565,-520.7979 1773.4684,-516.1766 1783.355,-520.9205 1783.355,-520.9205"/>
</g>
<!-- folium.plugins.marker_cluster&#45;&gt;folium.elements -->
<g id="edge74" class="edge">
<title>folium.plugins.marker_cluster&#45;&gt;folium.elements</title>
<path fill="none" stroke="#000000" d="M1439.7268,-322.8136C1442.6827,-323.2328 1445.613,-323.6299 1448.5,-324 1570.9458,-339.6954 1937.5242,-364.2999 2086.006,-373.9365"/>
<polygon fill="#000000" stroke="#000000" points="2096.3134,-374.6042 2086.0434,-378.4483 2091.3238,-374.2809 2086.3343,-373.9577 2086.3343,-373.9577 2086.3343,-373.9577 2091.3238,-374.2809 2086.6252,-369.4671 2096.3134,-374.6042 2096.3134,-374.6042"/>
</g>
<!-- folium.plugins.marker_cluster&#45;&gt;folium.map -->
<g id="edge75" class="edge">
<title>folium.plugins.marker_cluster&#45;&gt;folium.map</title>
<path fill="none" stroke="#000000" d="M1426.098,-324.0254C1521.4266,-345.327 1688.3755,-379.9047 1833.5,-396 2111.5415,-426.8366 3001.903,-444.9674 3224.6251,-449.0927"/>
<polygon fill="#000000" stroke="#000000" points="3234.7212,-449.2786 3224.64,-453.5937 3229.722,-449.1865 3224.7229,-449.0944 3224.7229,-449.0944 3224.7229,-449.0944 3229.722,-449.1865 3224.8057,-444.5952 3234.7212,-449.2786 3234.7212,-449.2786"/>
</g>
<!-- folium.plugins.marker_cluster&#45;&gt;folium.utilities -->
<g id="edge76" class="edge">
<title>folium.plugins.marker_cluster&#45;&gt;folium.utilities</title>
<path fill="none" stroke="#000000" d="M1387.4544,-324.046C1452.9286,-354.2943 1589.2889,-416.9352 1705.5,-468 1729.8874,-478.7162 1757.0464,-490.3096 1779.9696,-499.9971"/>
<polygon fill="#000000" stroke="#000000" points="1789.185,-503.8855 1778.2222,-504.1439 1784.5783,-501.9417 1779.9716,-499.9979 1779.9716,-499.9979 1779.9716,-499.9979 1784.5783,-501.9417 1781.721,-495.8518 1789.185,-503.8855 1789.185,-503.8855"/>
</g>
<!-- folium.plugins.measure_control&#45;&gt;folium.elements -->
<g id="edge77" class="edge">
<title>folium.plugins.measure_control&#45;&gt;folium.elements</title>
<path fill="none" stroke="#000000" d="M921.2053,-323.0355C923.9979,-323.3814 926.7674,-323.7043 929.5,-324 1157.1058,-348.6328 1868.9311,-370.1351 2086.0145,-376.2582"/>
<polygon fill="#000000" stroke="#000000" points="2096.2777,-376.5467 2086.1552,-380.7639 2091.2797,-376.4062 2086.2817,-376.2657 2086.2817,-376.2657 2086.2817,-376.2657 2091.2797,-376.4062 2086.4081,-371.7674 2096.2777,-376.5467 2096.2777,-376.5467"/>
</g>
<!-- folium.plugins.measure_control&#45;&gt;folium.utilities -->
<g id="edge78" class="edge">
<title>folium.plugins.measure_control&#45;&gt;folium.utilities</title>
<path fill="none" stroke="#000000" d="M847.6444,-324.2665C891.755,-359.4493 995.1009,-435.9642 1096.5,-468 1222.2694,-507.7354 1621.8193,-518.4847 1773.4057,-521.1704"/>
<polygon fill="#000000" stroke="#000000" points="1783.4557,-521.343 1773.3799,-525.6705 1778.4564,-521.2571 1773.4572,-521.1712 1773.4572,-521.1712 1773.4572,-521.1712 1778.4564,-521.2571 1773.5345,-516.6719 1783.4557,-521.343 1783.4557,-521.343"/>
</g>
<!-- folium.plugins.minimap&#45;&gt;folium.elements -->
<g id="edge79" class="edge">
<title>folium.plugins.minimap&#45;&gt;folium.elements</title>
<path fill="none" stroke="#000000" d="M1986.9782,-324.0757C2017.3564,-334.1551 2055.3201,-346.7514 2086.9146,-357.2343"/>
<polygon fill="#000000" stroke="#000000" points="2096.4999,-360.4147 2085.5915,-361.5365 2091.7543,-358.8401 2087.0087,-357.2655 2087.0087,-357.2655 2087.0087,-357.2655 2091.7543,-358.8401 2088.4258,-352.9944 2096.4999,-360.4147 2096.4999,-360.4147"/>
</g>
<!-- folium.plugins.minimap&#45;&gt;folium.raster_layers -->
<g id="edge80" class="edge">
<title>folium.plugins.minimap&#45;&gt;folium.raster_layers</title>
<path fill="none" stroke="#000000" d="M2007.5849,-310.2198C2078.4469,-314.1172 2187.6714,-319.9057 2282.5,-324 2849.0461,-348.4611 3532.7519,-369.307 3754.9339,-375.8607"/>
<polygon fill="#000000" stroke="#000000" points="3765.1628,-376.1619 3755.0346,-380.3655 3760.165,-376.0147 3755.1671,-375.8674 3755.1671,-375.8674 3755.1671,-375.8674 3760.165,-376.0147 3755.2997,-371.3694 3765.1628,-376.1619 3765.1628,-376.1619"/>
</g>
<!-- folium.plugins.minimap&#45;&gt;folium.utilities -->
<g id="edge81" class="edge">
<title>folium.plugins.minimap&#45;&gt;folium.utilities</title>
<path fill="none" stroke="#000000" d="M1924.1461,-324.0445C1906.6093,-361.9238 1865.8712,-449.9182 1845.1269,-494.726"/>
<polygon fill="#000000" stroke="#000000" points="1840.9005,-503.8549 1841.0182,-492.8897 1843.0011,-499.3176 1845.1018,-494.7803 1845.1018,-494.7803 1845.1018,-494.7803 1843.0011,-499.3176 1849.1854,-496.6708 1840.9005,-503.8549 1840.9005,-503.8549"/>
</g>
<!-- folium.plugins.mouse_position&#45;&gt;folium.elements -->
<g id="edge82" class="edge">
<title>folium.plugins.mouse_position&#45;&gt;folium.elements</title>
<path fill="none" stroke="#000000" d="M1126.0246,-314.2716C1164.0151,-317.507 1208.3388,-321.1235 1248.5,-324 1562.7487,-346.5076 1939.1215,-366.9684 2086.219,-374.7151"/>
<polygon fill="#000000" stroke="#000000" points="2096.4098,-375.2508 2086.1873,-379.2196 2091.4167,-374.9883 2086.4236,-374.7258 2086.4236,-374.7258 2086.4236,-374.7258 2091.4167,-374.9883 2086.6598,-370.232 2096.4098,-375.2508 2096.4098,-375.2508"/>
</g>
<!-- folium.plugins.mouse_position&#45;&gt;folium.utilities -->
<g id="edge83" class="edge">
<title>folium.plugins.mouse_position&#45;&gt;folium.utilities</title>
<path fill="none" stroke="#000000" d="M1038.3747,-324.0628C1050.7631,-358.8887 1083.1615,-434.8067 1139.5,-468 1193.4536,-499.7881 1615.5031,-515.5283 1773.2662,-520.3463"/>
<polygon fill="#000000" stroke="#000000" points="1783.2689,-520.6479 1773.1378,-524.8444 1778.2712,-520.4971 1773.2734,-520.3464 1773.2734,-520.3464 1773.2734,-520.3464 1778.2712,-520.4971 1773.4091,-515.8484 1783.2689,-520.6479 1783.2689,-520.6479"/>
</g>
<!-- folium.plugins.pattern&#45;&gt;folium.elements -->
<g id="edge84" class="edge">
<title>folium.plugins.pattern&#45;&gt;folium.elements</title>
<path fill="none" stroke="#000000" d="M2023.7377,-252.2377C2049.1646,-277.6646 2095.3747,-323.8747 2124.1431,-352.6431"/>
<polygon fill="#000000" stroke="#000000" points="2131.4104,-359.9104 2121.1573,-356.0213 2127.8748,-356.3748 2124.3393,-352.8393 2124.3393,-352.8393 2124.3393,-352.8393 2127.8748,-356.3748 2127.5213,-349.6573 2131.4104,-359.9104 2131.4104,-359.9104"/>
</g>
<!-- folium.plugins.pattern&#45;&gt;folium.folium -->
<g id="edge85" class="edge">
<title>folium.plugins.pattern&#45;&gt;folium.folium</title>
<path fill="none" stroke="#000000" d="M2074.7819,-235.4462C2293.7413,-240.2205 2990.4229,-256.9713 3566.5,-288 3631.172,-291.4834 3705.2909,-297.1334 3755.1218,-301.1743"/>
<polygon fill="#000000" stroke="#000000" points="3765.3744,-302.0108 3755.0415,-305.6826 3760.3909,-301.6041 3755.4075,-301.1975 3755.4075,-301.1975 3755.4075,-301.1975 3760.3909,-301.6041 3755.7735,-296.7124 3765.3744,-302.0108 3765.3744,-302.0108"/>
</g>
<!-- folium.plugins.pattern&#45;&gt;folium.utilities -->
<g id="edge86" class="edge">
<title>folium.plugins.pattern&#45;&gt;folium.utilities</title>
<path fill="none" stroke="#000000" d="M1936.3646,-241.4762C1902.6484,-244.9687 1861.4839,-249.0063 1824.5,-252 1760.5842,-257.1738 1292.4062,-241.264 1248.5,-288 1089.8421,-456.8836 1595.2108,-506.5579 1772.9985,-518.6203"/>
<polygon fill="#000000" stroke="#000000" points="1783.2255,-519.2971 1772.9501,-523.1269 1778.2364,-518.9669 1773.2473,-518.6367 1773.2473,-518.6367 1773.2473,-518.6367 1778.2364,-518.9669 1773.5445,-514.1465 1783.2255,-519.2971 1783.2255,-519.2971"/>
</g>
<!-- folium.plugins.polyline_offset&#45;&gt;folium.elements -->
<g id="edge87" class="edge">
<title>folium.plugins.polyline_offset&#45;&gt;folium.elements</title>
<path fill="none" stroke="#000000" d="M2675.2593,-322.7107C2672.3074,-323.1594 2669.3817,-323.5907 2666.5,-324 2503.4031,-347.164 2310.0363,-364.7495 2212.4916,-372.9345"/>
<polygon fill="#000000" stroke="#000000" points="2202.5011,-373.7681 2212.0923,-368.4521 2207.4838,-373.3523 2212.4665,-372.9366 2212.4665,-372.9366 2212.4665,-372.9366 2207.4838,-373.3523 2212.8407,-377.421 2202.5011,-373.7681 2202.5011,-373.7681"/>
</g>
<!-- folium.plugins.polyline_offset&#45;&gt;folium.vector_layers -->
<g id="edge88" class="edge">
<title>folium.plugins.polyline_offset&#45;&gt;folium.vector_layers</title>
<path fill="none" stroke="#000000" d="M2813.9403,-324.1686C2839.4195,-333.9266 2871.0044,-346.023 2897.7757,-356.2758"/>
<polygon fill="#000000" stroke="#000000" points="2907.4008,-359.962 2896.4528,-360.5878 2902.7315,-358.1737 2898.0622,-356.3855 2898.0622,-356.3855 2898.0622,-356.3855 2902.7315,-358.1737 2899.6717,-352.1831 2907.4008,-359.962 2907.4008,-359.962"/>
</g>
<!-- folium.plugins.polyline_text_path&#45;&gt;folium.elements -->
<g id="edge89" class="edge">
<title>folium.plugins.polyline_text_path&#45;&gt;folium.elements</title>
<path fill="none" stroke="#000000" d="M2060.5395,-180.368C2067.9311,-190.5342 2076.8208,-203.5914 2083.5,-216 2107.7886,-261.1233 2128.7325,-317.1441 2140.1886,-350.0925"/>
<polygon fill="#000000" stroke="#000000" points="2143.5669,-359.9362 2136.0644,-351.9385 2141.9438,-355.207 2140.3207,-350.4777 2140.3207,-350.4777 2140.3207,-350.4777 2141.9438,-355.207 2144.5771,-349.0169 2143.5669,-359.9362 2143.5669,-359.9362"/>
</g>
<!-- folium.plugins.polyline_text_path&#45;&gt;folium.features -->
<g id="edge90" class="edge">
<title>folium.plugins.polyline_text_path&#45;&gt;folium.features</title>
<path fill="none" stroke="#000000" d="M2147.7331,-179.044C2150.685,-179.3874 2153.6121,-179.7075 2156.5,-180 2413.8941,-206.0743 3226.39,-227.0765 3455.0752,-232.585"/>
<polygon fill="#000000" stroke="#000000" points="3465.2016,-232.828 3455.0965,-237.0867 3460.203,-232.708 3455.2045,-232.588 3455.2045,-232.588 3455.2045,-232.588 3460.203,-232.708 3455.3125,-228.0893 3465.2016,-232.828 3465.2016,-232.828"/>
</g>
<!-- folium.plugins.polyline_text_path&#45;&gt;folium.utilities -->
<g id="edge91" class="edge">
<title>folium.plugins.polyline_text_path&#45;&gt;folium.utilities</title>
<path fill="none" stroke="#000000" d="M1945.3238,-177.6837C1828.7089,-195.7331 1631.2851,-226.2058 1461.5,-252 1408.1818,-260.1002 1258.3602,-248.6329 1221.5,-288 1162.4958,-351.017 1215.6586,-432.8336 1294.5,-468 1378.844,-505.6207 1651.3648,-517.3113 1772.9642,-520.7071"/>
<polygon fill="#000000" stroke="#000000" points="1783.2035,-520.9833 1773.0857,-525.2119 1778.2053,-520.8485 1773.2071,-520.7136 1773.2071,-520.7136 1773.2071,-520.7136 1778.2053,-520.8485 1773.3285,-516.2152 1783.2035,-520.9833 1783.2035,-520.9833"/>
</g>
<!-- folium.plugins.search&#45;&gt;folium -->
<g id="edge92" class="edge">
<title>folium.plugins.search&#45;&gt;folium</title>
<path fill="none" stroke="#000000" d="M3533.5568,-108.1686C3552.4017,-118.5261 3576.0399,-131.5181 3595.3725,-142.1437"/>
<polygon fill="#000000" stroke="#000000" points="3604.1976,-146.9941 3593.2665,-146.121 3599.8158,-144.5857 3595.434,-142.1774 3595.434,-142.1774 3595.434,-142.1774 3599.8158,-144.5857 3597.6015,-138.2338 3604.1976,-146.9941 3604.1976,-146.9941"/>
</g>
<!-- folium.plugins.search&#45;&gt;folium.elements -->
<g id="edge93" class="edge">
<title>folium.plugins.search&#45;&gt;folium.elements</title>
<path fill="none" stroke="#000000" d="M3432.7217,-94.4166C3218.513,-108.8479 2558.139,-157.0887 2352.5,-216 2281.0253,-236.476 2256.108,-237.5434 2201.5,-288 2182.6783,-305.3908 2168.7371,-331.1817 2160.0534,-350.702"/>
<polygon fill="#000000" stroke="#000000" points="2156.1041,-359.9881 2155.8767,-349.0246 2158.0609,-355.3869 2160.0178,-350.7857 2160.0178,-350.7857 2160.0178,-350.7857 2158.0609,-355.3869 2164.1589,-352.5469 2156.1041,-359.9881 2156.1041,-359.9881"/>
</g>
<!-- folium.plugins.search&#45;&gt;folium.features -->
<g id="edge94" class="edge">
<title>folium.plugins.search&#45;&gt;folium.features</title>
<path fill="none" stroke="#000000" d="M3502.3998,-108.2377C3504.9582,-132.799 3509.5367,-176.7526 3512.5465,-205.6459"/>
<polygon fill="#000000" stroke="#000000" points="3513.6157,-215.9104 3508.1037,-206.4305 3513.0976,-210.9373 3512.5795,-205.9642 3512.5795,-205.9642 3512.5795,-205.9642 3513.0976,-210.9373 3517.0553,-205.4979 3513.6157,-215.9104 3513.6157,-215.9104"/>
</g>
<!-- folium.plugins.search&#45;&gt;folium.plugins -->
<g id="edge95" class="edge">
<title>folium.plugins.search&#45;&gt;folium.plugins</title>
<path fill="none" stroke="#000000" d="M3432.6996,-77.5008C3417.5561,-75.3638 3401.5432,-73.3887 3386.5,-72 3120.4574,-47.4398 2276.3612,-25.023 2045.3708,-19.3677"/>
<polygon fill="#000000" stroke="#000000" points="2035.159,-19.1189 2045.2657,-14.8639 2040.1575,-19.2407 2045.1561,-19.3625 2045.1561,-19.3625 2045.1561,-19.3625 2040.1575,-19.2407 2045.0464,-23.8612 2035.159,-19.1189 2035.159,-19.1189"/>
</g>
<!-- folium.plugins.search&#45;&gt;folium.utilities -->
<g id="edge96" class="edge">
<title>folium.plugins.search&#45;&gt;folium.utilities</title>
<path fill="none" stroke="#000000" d="M3568.0612,-97.9825C3768.1019,-122.0649 4343.5,-194.7472 4343.5,-234 4343.5,-234 4343.5,-234 4343.5,-378 4343.5,-491.0882 4216.4963,-446.349 4105.5,-468 3882.9064,-511.4192 2228.1438,-520.4005 1891.9823,-521.7835"/>
<polygon fill="#000000" stroke="#000000" points="1881.5013,-521.8259 1891.4829,-517.2854 1886.5012,-521.8056 1891.5012,-521.7854 1891.5012,-521.7854 1891.5012,-521.7854 1886.5012,-521.8056 1891.5194,-526.2853 1881.5013,-521.8259 1881.5013,-521.8259"/>
</g>
<!-- folium.plugins.semicircle&#45;&gt;folium.elements -->
<g id="edge97" class="edge">
<title>folium.plugins.semicircle&#45;&gt;folium.elements</title>
<path fill="none" stroke="#000000" d="M2875.9029,-322.5901C2872.7324,-323.0964 2869.589,-323.5695 2866.5,-324 2626.5889,-357.4338 2338.4279,-371.2082 2213.0026,-375.9172"/>
<polygon fill="#000000" stroke="#000000" points="2202.8151,-376.2931 2212.6424,-371.4273 2207.8117,-376.1087 2212.8083,-375.9242 2212.8083,-375.9242 2212.8083,-375.9242 2207.8117,-376.1087 2212.9743,-380.4212 2202.8151,-376.2931 2202.8151,-376.2931"/>
</g>
<!-- folium.plugins.semicircle&#45;&gt;folium.map -->
<g id="edge98" class="edge">
<title>folium.plugins.semicircle&#45;&gt;folium.map</title>
<path fill="none" stroke="#000000" d="M2994.8298,-324.0919C3053.5302,-350.4248 3162.4096,-399.2679 3225.9251,-427.7608"/>
<polygon fill="#000000" stroke="#000000" points="3235.3351,-431.9821 3224.3693,-431.9949 3230.7731,-429.9356 3226.2111,-427.8891 3226.2111,-427.8891 3226.2111,-427.8891 3230.7731,-429.9356 3228.053,-423.7833 3235.3351,-431.9821 3235.3351,-431.9821"/>
</g>
<!-- folium.plugins.semicircle&#45;&gt;folium.utilities -->
<g id="edge99" class="edge">
<title>folium.plugins.semicircle&#45;&gt;folium.utilities</title>
<path fill="none" stroke="#000000" d="M2875.8276,-322.1431C2872.6779,-322.7732 2869.5594,-323.3942 2866.5,-324 2495.878,-397.3866 2049.6155,-481.3552 1891.5131,-510.9683"/>
<polygon fill="#000000" stroke="#000000" points="1881.5198,-512.8396 1890.5207,-506.5759 1886.4344,-511.9193 1891.349,-510.999 1891.349,-510.999 1891.349,-510.999 1886.4344,-511.9193 1892.1772,-515.4221 1881.5198,-512.8396 1881.5198,-512.8396"/>
</g>
<!-- folium.plugins.semicircle&#45;&gt;folium.vector_layers -->
<g id="edge100" class="edge">
<title>folium.plugins.semicircle&#45;&gt;folium.vector_layers</title>
<path fill="none" stroke="#000000" d="M2954.5,-324.1686C2954.5,-331.869 2954.5,-341.0257 2954.5,-349.5834"/>
<polygon fill="#000000" stroke="#000000" points="2954.5,-359.5867 2950.0001,-349.5867 2954.5,-354.5867 2954.5001,-349.5867 2954.5001,-349.5867 2954.5001,-349.5867 2954.5,-354.5867 2959.0001,-349.5868 2954.5,-359.5867 2954.5,-359.5867"/>
</g>
<!-- folium.plugins.terminator&#45;&gt;folium.elements -->
<g id="edge101" class="edge">
<title>folium.plugins.terminator&#45;&gt;folium.elements</title>
<path fill="none" stroke="#000000" d="M1879.9276,-108.006C1881.6542,-140.7585 1889.836,-210.5215 1927.5,-252 1956.1841,-283.589 1980.3167,-265.3856 2016.5,-288 2036.7821,-300.6762 2037.1661,-309.9199 2056.5,-324 2071.7656,-335.1173 2089.4864,-345.8795 2105.3392,-354.8317"/>
<polygon fill="#000000" stroke="#000000" points="2114.4245,-359.8825 2103.4978,-358.9567 2110.0544,-357.453 2105.6843,-355.0236 2105.6843,-355.0236 2105.6843,-355.0236 2110.0544,-357.453 2107.8709,-351.0905 2114.4245,-359.8825 2114.4245,-359.8825"/>
</g>
<!-- folium.plugins.time_slider_choropleth&#45;&gt;folium.elements -->
<g id="edge102" class="edge">
<title>folium.plugins.time_slider_choropleth&#45;&gt;folium.elements</title>
<path fill="none" stroke="#000000" d="M2995.7238,-169.5542C2791.0587,-184.5982 2369.9701,-222.6075 2239.5,-288 2235.4321,-290.0389 2199.3303,-326.723 2174.1074,-352.619"/>
<polygon fill="#000000" stroke="#000000" points="2166.9972,-359.9288 2170.7441,-349.6228 2170.4835,-356.3446 2173.9698,-352.7605 2173.9698,-352.7605 2173.9698,-352.7605 2170.4835,-356.3446 2177.1955,-355.8982 2166.9972,-359.9288 2166.9972,-359.9288"/>
</g>
<!-- folium.plugins.time_slider_choropleth&#45;&gt;folium.features -->
<g id="edge103" class="edge">
<title>folium.plugins.time_slider_choropleth&#45;&gt;folium.features</title>
<path fill="none" stroke="#000000" d="M3211.1652,-180.0293C3288.0846,-193.6702 3391.1109,-211.9409 3455.3798,-223.3383"/>
<polygon fill="#000000" stroke="#000000" points="3465.3518,-225.1067 3454.7197,-227.7914 3460.4287,-224.2336 3455.5055,-223.3605 3455.5055,-223.3605 3455.5055,-223.3605 3460.4287,-224.2336 3456.2913,-218.9296 3465.3518,-225.1067 3465.3518,-225.1067"/>
</g>
<!-- folium.plugins.time_slider_choropleth&#45;&gt;folium.map -->
<g id="edge104" class="edge">
<title>folium.plugins.time_slider_choropleth&#45;&gt;folium.map</title>
<path fill="none" stroke="#000000" d="M3161.6027,-180.0444C3207.4515,-199.0283 3271.3144,-233.7825 3300.5,-288 3323.5807,-330.8766 3304.6385,-388.8101 3289.5379,-422.5173"/>
<polygon fill="#000000" stroke="#000000" points="3285.2224,-431.7533 3285.3787,-420.7885 3287.339,-427.2234 3289.4556,-422.6935 3289.4556,-422.6935 3289.4556,-422.6935 3287.339,-427.2234 3293.5326,-424.5984 3285.2224,-431.7533 3285.2224,-431.7533"/>
</g>
<!-- folium.plugins.timestamped_geo_json&#45;&gt;folium.elements -->
<g id="edge105" class="edge">
<title>folium.plugins.timestamped_geo_json&#45;&gt;folium.elements</title>
<path fill="none" stroke="#000000" d="M3819.7047,-247.9193C3803.8688,-249.5067 3787.7913,-250.9344 3772.5,-252 3629.0146,-261.9993 2611.3629,-232.9046 2478.5,-288 2457.01,-296.9114 2461.232,-313.4446 2440.5,-324 2401.5775,-343.8168 2286.0194,-361.1278 2212.7744,-370.5218"/>
<polygon fill="#000000" stroke="#000000" points="2202.7324,-371.7943 2212.0874,-366.0728 2207.6928,-371.1657 2212.6531,-370.5371 2212.6531,-370.5371 2212.6531,-370.5371 2207.6928,-371.1657 2213.2188,-375.0014 2202.7324,-371.7943 2202.7324,-371.7943"/>
</g>
<!-- folium.plugins.timestamped_geo_json&#45;&gt;folium.folium -->
<g id="edge106" class="edge">
<title>folium.plugins.timestamped_geo_json&#45;&gt;folium.folium</title>
<path fill="none" stroke="#000000" d="M3902.9666,-252.1686C3887.4899,-261.3779 3868.5131,-272.6699 3851.9437,-282.5294"/>
<polygon fill="#000000" stroke="#000000" points="3843.0236,-287.8372 3849.3162,-278.8564 3847.3205,-285.2804 3851.6173,-282.7235 3851.6173,-282.7235 3851.6173,-282.7235 3847.3205,-285.2804 3853.9185,-286.5907 3843.0236,-287.8372 3843.0236,-287.8372"/>
</g>
<!-- folium.plugins.timestamped_geo_json&#45;&gt;folium.utilities -->
<g id="edge107" class="edge">
<title>folium.plugins.timestamped_geo_json&#45;&gt;folium.utilities</title>
<path fill="none" stroke="#000000" d="M4047.3205,-246.3432C4132.0523,-256.7089 4235.2665,-272.3049 4248.5,-288 4258.8137,-300.2322 4257.5076,-310.7764 4248.5,-324 4150.0902,-468.4713 4053.7991,-433.1711 3882.5,-468 3683.2801,-508.5059 2207.6728,-519.7183 1891.8761,-521.6649"/>
<polygon fill="#000000" stroke="#000000" points="1881.5681,-521.7277 1891.5405,-517.1668 1886.568,-521.6972 1891.5679,-521.6667 1891.5679,-521.6667 1891.5679,-521.6667 1886.568,-521.6972 1891.5953,-526.1666 1881.5681,-521.7277 1881.5681,-521.7277"/>
</g>
<!-- folium.plugins.timestamped_wmstilelayer&#45;&gt;folium.elements -->
<g id="edge108" class="edge">
<title>folium.plugins.timestamped_wmstilelayer&#45;&gt;folium.elements</title>
<path fill="none" stroke="#000000" d="M3991.0788,-319.8468C3973.7712,-321.4452 3956.2032,-322.8953 3939.5,-324 3764.7425,-335.5575 2510.8556,-368.6049 2212.9028,-376.358"/>
<polygon fill="#000000" stroke="#000000" points="2202.7103,-376.623 2212.5899,-371.8645 2207.7086,-376.493 2212.7069,-376.363 2212.7069,-376.363 2212.7069,-376.363 2207.7086,-376.493 2212.824,-380.8615 2202.7103,-376.623 2202.7103,-376.623"/>
</g>
<!-- folium.plugins.timestamped_wmstilelayer&#45;&gt;folium.map -->
<g id="edge109" class="edge">
<title>folium.plugins.timestamped_wmstilelayer&#45;&gt;folium.map</title>
<path fill="none" stroke="#000000" d="M4094.8307,-324.3533C4069.2906,-345.8077 4023.5435,-380.3658 3977.5,-396 3856.818,-436.9778 3466.9443,-447.0274 3326.5098,-449.3453"/>
<polygon fill="#000000" stroke="#000000" points="3316.4434,-449.5052 3326.3707,-444.8469 3321.4428,-449.4258 3326.4422,-449.3463 3326.4422,-449.3463 3326.4422,-449.3463 3321.4428,-449.4258 3326.5137,-453.8457 3316.4434,-449.5052 3316.4434,-449.5052"/>
</g>
<!-- folium.plugins.timestamped_wmstilelayer&#45;&gt;folium.raster_layers -->
<g id="edge110" class="edge">
<title>folium.plugins.timestamped_wmstilelayer&#45;&gt;folium.raster_layers</title>
<path fill="none" stroke="#000000" d="M4043.4482,-324.0757C4000.1615,-334.9351 3945.2296,-348.7159 3901.7333,-359.6279"/>
<polygon fill="#000000" stroke="#000000" points="3891.788,-362.1229 3900.3924,-355.3248 3896.6377,-360.9062 3901.4874,-359.6895 3901.4874,-359.6895 3901.4874,-359.6895 3896.6377,-360.9062 3902.5824,-364.0542 3891.788,-362.1229 3891.788,-362.1229"/>
</g>
<!-- folium.plugins.timestamped_wmstilelayer&#45;&gt;folium.utilities -->
<g id="edge111" class="edge">
<title>folium.plugins.timestamped_wmstilelayer&#45;&gt;folium.utilities</title>
<path fill="none" stroke="#000000" d="M4101.7179,-324.1957C4085.4051,-344.5181 4056.3991,-377.0414 4024.5,-396 3929.1341,-452.6789 3895.0185,-450.3119 3785.5,-468 3594.915,-498.781 2198.7248,-517.5215 1891.9801,-521.2931"/>
<polygon fill="#000000" stroke="#000000" points="1881.9531,-521.4158 1891.8972,-516.7936 1886.9527,-521.3545 1891.9523,-521.2933 1891.9523,-521.2933 1891.9523,-521.2933 1886.9527,-521.3545 1892.0075,-525.793 1881.9531,-521.4158 1881.9531,-521.4158"/>
</g>
<!-- folium.plugins.vectorgrid_protobuf&#45;&gt;folium.elements -->
<g id="edge112" class="edge">
<title>folium.plugins.vectorgrid_protobuf&#45;&gt;folium.elements</title>
<path fill="none" stroke="#000000" d="M3347.9371,-319.3709C3332.0626,-321.1143 3315.8602,-322.7318 3300.5,-324 2886.5459,-358.1775 2386.918,-372.4373 2212.9027,-376.6056"/>
<polygon fill="#000000" stroke="#000000" points="2202.6492,-376.8485 2212.5398,-372.1129 2207.6478,-376.7301 2212.6464,-376.6116 2212.6464,-376.6116 2212.6464,-376.6116 2207.6478,-376.7301 2212.753,-381.1104 2202.6492,-376.8485 2202.6492,-376.8485"/>
</g>
<!-- folium.plugins.vectorgrid_protobuf&#45;&gt;folium.map -->
<g id="edge113" class="edge">
<title>folium.plugins.vectorgrid_protobuf&#45;&gt;folium.map</title>
<path fill="none" stroke="#000000" d="M3430.0828,-324.2377C3398.563,-349.881 3341.0603,-396.6628 3305.7697,-425.3738"/>
<polygon fill="#000000" stroke="#000000" points="3297.7352,-431.9104 3302.6524,-422.1088 3301.6137,-428.7549 3305.4923,-425.5995 3305.4923,-425.5995 3305.4923,-425.5995 3301.6137,-428.7549 3308.3322,-429.0902 3297.7352,-431.9104 3297.7352,-431.9104"/>
</g>
<!-- folium.raster_layers&#45;&gt;folium.map -->
<g id="edge114" class="edge">
<title>folium.raster_layers&#45;&gt;folium.map</title>
<path fill="none" stroke="#000000" d="M3765.2861,-388.2735C3748.4719,-390.9024 3730.3114,-393.6486 3713.5,-396 3573.4243,-415.5919 3407.6083,-435.008 3326.0148,-444.314"/>
<polygon fill="#000000" stroke="#000000" points="3316.0164,-445.4518 3325.4434,-439.8499 3320.9843,-444.8864 3325.9522,-444.3211 3325.9522,-444.3211 3325.9522,-444.3211 3320.9843,-444.8864 3326.4611,-448.7922 3316.0164,-445.4518 3316.0164,-445.4518"/>
</g>
<!-- folium.raster_layers&#45;&gt;folium.utilities -->
<g id="edge115" class="edge">
<title>folium.raster_layers&#45;&gt;folium.utilities</title>
<path fill="none" stroke="#000000" d="M3819.1646,-396.1648C3806.9263,-417.7794 3783.2294,-452.8444 3751.5,-468 3665.6816,-508.9913 2206.9709,-519.8161 1892.0996,-521.6796"/>
<polygon fill="#000000" stroke="#000000" points="1881.8171,-521.7396 1891.7906,-517.1812 1886.817,-521.7104 1891.8169,-521.6811 1891.8169,-521.6811 1891.8169,-521.6811 1886.817,-521.7104 1891.8432,-526.1811 1881.8171,-521.7396 1881.8171,-521.7396"/>
</g>
<!-- folium.vector_layers&#45;&gt;folium.map -->
<g id="edge116" class="edge">
<title>folium.vector_layers&#45;&gt;folium.map</title>
<path fill="none" stroke="#000000" d="M3019.8461,-392.6571C3080.4184,-406.2434 3169.2898,-426.1772 3224.7039,-438.6065"/>
<polygon fill="#000000" stroke="#000000" points="3234.6472,-440.8368 3223.9047,-443.039 3229.7684,-439.7424 3224.8896,-438.6481 3224.8896,-438.6481 3224.8896,-438.6481 3229.7684,-439.7424 3225.8745,-434.2572 3234.6472,-440.8368 3234.6472,-440.8368"/>
</g>
<!-- folium.vector_layers&#45;&gt;folium.utilities -->
<g id="edge117" class="edge">
<title>folium.vector_layers&#45;&gt;folium.utilities</title>
<path fill="none" stroke="#000000" d="M2935.3648,-396.1468C2911.2287,-417.7432 2867.4245,-452.79 2822.5,-468 2734.5611,-497.7734 2091.6901,-515.7166 1891.7051,-520.623"/>
<polygon fill="#000000" stroke="#000000" points="1881.6806,-520.8671 1891.5681,-516.1249 1886.6791,-520.7454 1891.6777,-520.6236 1891.6777,-520.6236 1891.6777,-520.6236 1886.6791,-520.7454 1891.7872,-525.1223 1881.6806,-520.8671 1881.6806,-520.8671"/>
</g>
</g>
</svg>
